<?xml version="1.0" encoding="UTF-8" standalone="no"?>
<!-- Generator: Adobe Illustrator 18.0.0, SVG Export Plug-In . SVG Version: 6.00 Build 0)  -->

<svg
   xmlns:dc="http://purl.org/dc/elements/1.1/"
   xmlns:cc="http://creativecommons.org/ns#"
   xmlns:rdf="http://www.w3.org/1999/02/22-rdf-syntax-ns#"
   xmlns:svg="http://www.w3.org/2000/svg"
   xmlns="http://www.w3.org/2000/svg"
   xmlns:sodipodi="http://sodipodi.sourceforge.net/DTD/sodipodi-0.dtd"
   xmlns:inkscape="http://www.inkscape.org/namespaces/inkscape"
   version="1.1"
   id="Calque_1"
   x="0px"
   y="0px"
   viewBox="0 0 1544 500"
   enable-background="new 0 0 1546.7 502"
   xml:space="preserve"
   inkscape:version="0.91 r13725"
   sodipodi:docname="banner.svg"
   width="1544"
   height="500"><metadata
     id="metadata311"><rdf:RDF><cc:Work
         rdf:about=""><dc:format>image/svg+xml</dc:format><dc:type
           rdf:resource="http://purl.org/dc/dcmitype/StillImage" /><dc:title></dc:title></cc:Work></rdf:RDF></metadata><defs
     id="defs309" /><sodipodi:namedview
     pagecolor="#ffffff"
     bordercolor="#666666"
     borderopacity="1"
     objecttolerance="10"
     gridtolerance="10"
     guidetolerance="10"
     inkscape:pageopacity="0"
     inkscape:pageshadow="2"
     inkscape:window-width="1867"
     inkscape:window-height="1056"
     id="namedview307"
     showgrid="false"
     fit-margin-top="0"
     fit-margin-left="0"
     fit-margin-right="0"
     fit-margin-bottom="0"
     inkscape:zoom="0.74227339"
     inkscape:cx="773.34998"
     inkscape:cy="251"
     inkscape:window-x="53"
     inkscape:window-y="24"
     inkscape:window-maximized="1"
     inkscape:current-layer="Calque_1" /><rect
     x="1692.2"
     y="-47.400002"
     display="none"
     width="211.3"
     height="76.400002"
     id="rect3"
     style="display:none;fill:#1da67a" /><rect
     x="1692.2"
     y="48.299999"
     display="none"
     width="211.3"
     height="76.400002"
     id="rect5"
     style="display:none;fill:#004d40" /><rect
     x="1692.2"
     y="-144"
     display="none"
     width="211.3"
     height="76.400002"
     id="rect7"
     style="display:none;fill:#6c6c6c" /><g
     display="none"
     id="g9"
     style="display:none"
     transform="translate(0,-2)"><g
       display="inline"
       id="g11"
       style="display:inline"><radialGradient
         id="SVGID_1_"
         cx="239.9977"
         cy="-564.62097"
         r="128"
         gradientUnits="userSpaceOnUse"><stop
           offset="0"
           style="stop-color:#00815C"
           id="stop14" /><stop
           offset="0.7916"
           style="stop-color:#005845"
           id="stop16" /><stop
           offset="1"
           style="stop-color:#004D3F"
           id="stop18" /></radialGradient><rect
         x="112"
         y="-692.59998"
         width="256"
         height="256"
         id="rect20"
         style="fill:url(#SVGID_1_)" /><g
         id="g22"><circle
           cx="350.89999"
           cy="-667.29999"
           r="41.200001"
           id="circle24"
           style="opacity:0.1;fill:#ffffff" /><circle
           cx="333.20001"
           cy="-630.40002"
           r="29.4"
           id="circle26"
           style="opacity:0.1;fill:#ffffff" /><circle
           cx="312.5"
           cy="-649.5"
           r="17.799999"
           id="circle28"
           style="opacity:0.1;fill:#ffffff" /></g><g
         id="g30"><circle
           cx="132.5"
           cy="-511.5"
           r="41.200001"
           id="circle32"
           style="opacity:0.1;fill:#ffffff" /><circle
           cx="150.2"
           cy="-548.40002"
           r="29.4"
           id="circle34"
           style="opacity:0.1;fill:#ffffff" /><circle
           cx="170.89999"
           cy="-529.29999"
           r="17.799999"
           id="circle36"
           style="opacity:0.1;fill:#ffffff" /></g><path
         d="m 327,-629.5 -173.9,0 c -8.8,0 -16,7.2 -16,16 l 0,24.5 c 0,8.8 7.2,16 16,16 l 70.7,0 4.9,8.5 11.3,19.6 11.3,-19.6 4.9,-8.5 70.8,0 c 8.8,0 16,-7.2 16,-16 l 0,-24.5 c 0,-8.8 -7.2,-16 -16,-16 z"
         id="path38"
         inkscape:connector-curvature="0"
         style="fill:#ffffff" /><rect
         x="112"
         y="-492.5"
         width="256.10001"
         height="55.900002"
         id="rect40"
         style="fill:#1da67a" /></g><g
       display="inline"
       id="g42"
       style="display:inline"><path
         d="m 161.1,-612.4 c 0,1.7 -1.3,3 -3.2,3 -1.9,0 -3.2,-1.3 -3.1,-3 0,-1.7 1.2,-3 3.2,-3 1.8,0 3,1.3 3.1,3 z m -6.3,24.8 0,-19.4 6,0 0,19.4 -6,0 z"
         id="path44"
         inkscape:connector-curvature="0"
         style="fill:#1da67a" /><path
         d="m 171,-609.3 -7.2,0 0,-5.1 20.5,0 0,5.1 -7.3,0 0,21.6 -6,0 0,-21.6 z"
         id="path46"
         inkscape:connector-curvature="0"
         style="fill:#1da67a" /><path
         d="m 186.9,-615.7 6,0 0,11 0.1,0 c 0.6,-0.8 1.4,-1.5 2.4,-2 0.9,-0.5 2,-0.8 3.1,-0.8 3.8,0 6.8,2.7 6.8,8.5 l 0,11.3 -6,0 0,-10.7 c 0,-2.5 -0.9,-4.3 -3.1,-4.3 -1.6,0 -2.6,1 -3,2.1 -0.2,0.4 -0.2,0.9 -0.2,1.3 l 0,11.5 -6,0 0,-27.9 z"
         id="path48"
         inkscape:connector-curvature="0"
         style="fill:#1da67a" /><path
         d="m 229.2,-597.5 c 0,7.1 -5,10.3 -10.2,10.3 -5.7,0 -10,-3.7 -10,-10 0,-6.3 4.1,-10.3 10.3,-10.3 6,0.1 9.9,4.1 9.9,10 z m -14,0.2 c 0,3.3 1.4,5.8 4,5.8 2.3,0 3.8,-2.3 3.8,-5.8 0,-2.9 -1.1,-5.8 -3.8,-5.8 -2.9,-0.1 -4,2.9 -4,5.8 z"
         id="path50"
         inkscape:connector-curvature="0"
         style="fill:#1da67a" /><path
         d="m 251.2,-593.9 c 0,2.5 0.1,4.6 0.2,6.2 l -5.2,0 -0.3,-2.7 -0.1,0 c -0.8,1.2 -2.6,3.2 -6.1,3.2 -3.9,0 -6.8,-2.5 -6.8,-8.4 l 0,-11.4 6.1,0 0,10.4 c 0,2.8 0.9,4.5 3,4.5 1.7,0 2.6,-1.1 3,-2.1 0.2,-0.4 0.2,-0.8 0.2,-1.3 l 0,-11.5 6.1,0 0,13.1 z"
         id="path52"
         inkscape:connector-curvature="0"
         style="fill:#1da67a" /><path
         d="m 274.5,-607 c -0.1,1.2 -0.2,2.9 -0.2,5.7 l 0,10.8 c 0,3.7 -0.8,6.8 -2.9,8.7 -2.1,1.8 -5,2.4 -7.9,2.4 -2.5,0 -5.2,-0.5 -7,-1.5 l 1.2,-4.6 c 1.2,0.7 3.4,1.5 5.6,1.5 2.9,0 5,-1.5 5,-5.1 l 0,-1.3 -0.1,0 c -1.1,1.6 -3,2.5 -5.2,2.5 -4.8,0 -8.2,-3.9 -8.2,-9.5 0,-6.2 4,-10.2 8.8,-10.2 2.7,0 4.3,1.1 5.3,2.7 l 0.1,0 0.2,-2.3 5.3,0 z m -6.1,7.9 c 0,-0.4 0,-0.8 -0.1,-1.1 -0.4,-1.6 -1.6,-2.7 -3.2,-2.7 -2.2,0 -4,2 -4,5.5 0,2.9 1.4,5.1 4,5.1 1.5,0 2.8,-1 3.2,-2.5 0.2,-0.4 0.2,-1.1 0.2,-1.6 l 0,-2.7 z"
         id="path54"
         inkscape:connector-curvature="0"
         style="fill:#1da67a" /><path
         d="m 279.2,-615.7 6,0 0,11 0.1,0 c 0.6,-0.8 1.4,-1.5 2.4,-2 0.9,-0.5 2,-0.8 3.1,-0.8 3.8,0 6.8,2.7 6.8,8.5 l 0,11.3 -6,0 0,-10.7 c 0,-2.5 -0.9,-4.3 -3.1,-4.3 -1.6,0 -2.6,1 -3,2.1 -0.2,0.4 -0.2,0.9 -0.2,1.3 l 0,11.5 -6,0 0,-27.9 z"
         id="path56"
         inkscape:connector-curvature="0"
         style="fill:#1da67a" /><path
         d="m 308.9,-612.5 0,5.5 4.3,0 0,4.4 -4.3,0 0,7 c 0,2.3 0.6,3.4 2.4,3.4 0.8,0 1.3,-0.1 1.8,-0.2 l 0,4.6 c -0.8,0.3 -2.2,0.5 -3.9,0.5 -1.9,0 -3.6,-0.7 -4.5,-1.7 -1.1,-1.1 -1.7,-3 -1.7,-5.7 l 0,-7.9 -2.6,0 0,-4.4 2.6,0 0,-4.2 5.9,-1.3 z"
         id="path58"
         inkscape:connector-curvature="0"
         style="fill:#1da67a" /><path
         d="m 316.7,-592.9 c 1.1,0.7 3.4,1.5 5.2,1.5 1.8,0 2.6,-0.6 2.6,-1.6 0,-1 -0.6,-1.5 -2.9,-2.2 -4,-1.3 -5.5,-3.5 -5.5,-5.8 0,-3.6 3.1,-6.3 7.9,-6.3 2.3,0 4.3,0.5 5.5,1.1 l -1.1,4.2 c -0.9,-0.5 -2.5,-1.1 -4.2,-1.1 -1.5,0 -2.3,0.6 -2.3,1.6 0,0.9 0.8,1.4 3.1,2.2 3.7,1.3 5.2,3.1 5.3,6 0,3.6 -2.9,6.3 -8.4,6.3 -2.5,0 -4.8,-0.6 -6.3,-1.3 l 1.1,-4.6 z"
         id="path60"
         inkscape:connector-curvature="0"
         style="fill:#1da67a" /></g><g
       display="inline"
       id="g62"
       style="display:inline"><path
         d="m 130.8,-478.3 -7.3,0 0,-2.6 17.7,0 0,2.6 -7.3,0 0,21.2 -3.1,0 0,-21.2 z"
         id="path64"
         inkscape:connector-curvature="0"
         style="fill:#f4f4f4" /><path
         d="m 156.7,-465.8 c 0,6.3 -4.4,9.1 -8.5,9.1 -4.6,0 -8.2,-3.4 -8.2,-8.8 0,-5.7 3.8,-9.1 8.5,-9.1 4.9,0 8.2,3.6 8.2,8.8 z m -13.5,0.2 c 0,3.8 2.2,6.6 5.2,6.6 3,0 5.2,-2.8 5.2,-6.7 0,-2.9 -1.5,-6.6 -5.1,-6.6 -3.8,0 -5.3,3.4 -5.3,6.7 z"
         id="path66"
         inkscape:connector-curvature="0"
         style="fill:#f4f4f4" /><path
         d="m 176.2,-465.8 c 0,6.3 -4.4,9.1 -8.5,9.1 -4.6,0 -8.2,-3.4 -8.2,-8.8 0,-5.7 3.8,-9.1 8.5,-9.1 4.9,0 8.2,3.6 8.2,8.8 z m -13.6,0.2 c 0,3.8 2.2,6.6 5.2,6.6 3,0 5.2,-2.8 5.2,-6.7 0,-2.9 -1.5,-6.6 -5.1,-6.6 -3.7,0 -5.3,3.4 -5.3,6.7 z"
         id="path68"
         inkscape:connector-curvature="0"
         style="fill:#f4f4f4" /><path
         d="m 180.1,-482.2 3.1,0 0,25.1 -3.1,0 0,-25.1 z"
         id="path70"
         inkscape:connector-curvature="0"
         style="fill:#f4f4f4" /><path
         d="m 192.2,-479.1 0,4.9 4.5,0 0,2.4 -4.5,0 0,9.2 c 0,2.1 0.6,3.3 2.3,3.3 0.8,0 1.4,-0.1 1.8,-0.2 l 0.1,2.3 c -0.6,0.2 -1.6,0.4 -2.8,0.4 -1.5,0 -2.6,-0.5 -3.4,-1.3 -0.9,-0.9 -1.2,-2.4 -1.2,-4.5 l 0,-9.3 -2.7,0 0,-2.4 2.7,0 0,-4.1 3.2,-0.7 z"
         id="path72"
         inkscape:connector-curvature="0"
         style="fill:#f4f4f4" /><path
         d="m 203.7,-479 c 0,1.1 -0.7,1.9 -2,1.9 -1.1,0 -1.9,-0.8 -1.9,-1.9 0,-1.1 0.8,-1.9 1.9,-1.9 1.2,-0.1 2,0.8 2,1.9 z m -3.5,21.9 0,-17.1 3.1,0 0,17.1 -3.1,0 z"
         id="path74"
         inkscape:connector-curvature="0"
         style="fill:#f4f4f4" /><path
         d="m 208.5,-468.6 c 0,-2.2 -0.1,-4 -0.1,-5.6 l 2.8,0 0.1,2.9 0.1,0 c 1.3,-2.1 3.3,-3.3 6.1,-3.3 4.1,0 7.3,3.5 7.3,8.7 0,6.2 -3.8,9.2 -7.8,9.2 -2.3,0 -4.2,-1 -5.3,-2.7 l -0.1,0 0,9.3 -3.1,0 0,-18.5 z m 3,4.6 c 0,0.5 0.1,0.9 0.1,1.3 0.6,2.2 2.4,3.6 4.7,3.6 3.3,0 5.2,-2.7 5.2,-6.6 0,-3.4 -1.8,-6.4 -5.1,-6.4 -2.1,0 -4.1,1.5 -4.7,3.9 -0.1,0.4 -0.2,0.8 -0.2,1.3 l 0,2.9 z"
         id="path76"
         inkscape:connector-curvature="0"
         style="fill:#f4f4f4" /><path
         d="m 254.4,-458.1 c -1.4,0.5 -4.1,1.3 -7.3,1.3 -3.6,0 -6.6,-0.9 -8.9,-3.2 -2.1,-2 -3.3,-5.2 -3.3,-8.9 0,-7.1 4.9,-12.3 12.9,-12.3 2.8,0 4.9,0.6 5.9,1.1 l -0.7,2.5 c -1.3,-0.6 -2.9,-1 -5.3,-1 -5.8,0 -9.6,3.6 -9.6,9.6 0,6.1 3.6,9.6 9.2,9.6 2,0 3.4,-0.3 4.1,-0.6 l 0,-7.1 -4.8,0 0,-2.5 7.9,0 0,11.5 z"
         id="path78"
         inkscape:connector-curvature="0"
         style="fill:#f4f4f4" /><path
         d="m 259,-482.2 3.1,0 0,25.1 -3.1,0 0,-25.1 z"
         id="path80"
         inkscape:connector-curvature="0"
         style="fill:#f4f4f4" /><path
         d="m 282.8,-465.8 c 0,6.3 -4.4,9.1 -8.5,9.1 -4.6,0 -8.2,-3.4 -8.2,-8.8 0,-5.7 3.8,-9.1 8.5,-9.1 4.9,0 8.2,3.6 8.2,8.8 z m -13.6,0.2 c 0,3.8 2.2,6.6 5.2,6.6 3,0 5.2,-2.8 5.2,-6.7 0,-2.9 -1.5,-6.6 -5.1,-6.6 -3.7,0 -5.3,3.4 -5.3,6.7 z"
         id="path82"
         inkscape:connector-curvature="0"
         style="fill:#f4f4f4" /><path
         d="m 286.3,-460.3 c 0.9,0.6 2.5,1.2 4.1,1.2 2.3,0 3.3,-1.1 3.3,-2.5 0,-1.5 -0.9,-2.3 -3.2,-3.2 -3.1,-1.1 -4.5,-2.8 -4.5,-4.8 0,-2.8 2.2,-5 5.9,-5 1.7,0 3.3,0.5 4.2,1.1 l -0.8,2.3 c -0.7,-0.4 -1.9,-1 -3.5,-1 -1.8,0 -2.9,1.1 -2.9,2.3 0,1.4 1,2.1 3.3,2.9 3,1.1 4.5,2.6 4.5,5.2 0,3 -2.3,5.1 -6.4,5.1 -1.9,0 -3.6,-0.5 -4.8,-1.2 l 0.8,-2.4 z"
         id="path84"
         inkscape:connector-curvature="0"
         style="fill:#f4f4f4" /><path
         d="m 300.4,-460.3 c 0.9,0.6 2.5,1.2 4.1,1.2 2.3,0 3.3,-1.1 3.3,-2.5 0,-1.5 -0.9,-2.3 -3.2,-3.2 -3.1,-1.1 -4.5,-2.8 -4.5,-4.8 0,-2.8 2.2,-5 5.9,-5 1.7,0 3.3,0.5 4.2,1.1 l -0.8,2.3 c -0.7,-0.4 -1.9,-1 -3.5,-1 -1.8,0 -2.9,1.1 -2.9,2.3 0,1.4 1,2.1 3.3,2.9 3,1.1 4.5,2.6 4.5,5.2 0,3 -2.3,5.1 -6.4,5.1 -1.9,0 -3.6,-0.5 -4.8,-1.2 l 0.8,-2.4 z"
         id="path86"
         inkscape:connector-curvature="0"
         style="fill:#f4f4f4" /><path
         d="m 324.3,-457.1 -0.2,-2.2 -0.1,0 c -1,1.3 -2.8,2.5 -5.2,2.5 -3.5,0 -5.2,-2.4 -5.2,-4.9 0,-4.1 3.7,-6.4 10.3,-6.4 l 0,-0.4 c 0,-1.4 -0.4,-4 -3.9,-4 -1.6,0 -3.3,0.5 -4.5,1.3 l -0.7,-2.1 c 1.4,-0.9 3.5,-1.5 5.6,-1.5 5.2,0 6.5,3.6 6.5,7 l 0,6.4 c 0,1.5 0.1,2.9 0.3,4.1 l -2.9,0 z m -0.5,-8.7 c -3.4,-0.1 -7.3,0.5 -7.3,3.9 0,2 1.3,3 2.9,3 2.2,0 3.6,-1.4 4.1,-2.9 0.1,-0.3 0.2,-0.7 0.2,-1 l 0,-3 z"
         id="path88"
         inkscape:connector-curvature="0"
         style="fill:#f4f4f4" /><path
         d="m 331.9,-468.9 c 0,-2 0,-3.8 -0.1,-5.3 l 2.7,0 0.1,3.4 0.1,0 c 0.8,-2.3 2.7,-3.8 4.7,-3.8 0.4,0 0.6,0 0.9,0.1 l 0,2.9 c -0.3,-0.1 -0.6,-0.1 -1.1,-0.1 -2.2,0 -3.8,1.7 -4.2,4 -0.1,0.4 -0.1,0.9 -0.1,1.5 l 0,9.1 -3.1,0 0,-11.8 z"
         id="path90"
         inkscape:connector-curvature="0"
         style="fill:#f4f4f4" /><path
         d="m 345.5,-474.2 3.8,10.1 c 0.4,1.1 0.8,2.5 1.1,3.5 l 0.1,0 c 0.3,-1 0.7,-2.3 1.1,-3.6 l 3.4,-10.1 3.3,0 -4.7,12.2 c -2.2,5.9 -3.8,8.9 -5.9,10.7 -1.5,1.3 -3,1.9 -3.8,2 l -0.8,-2.6 c 0.8,-0.2 1.8,-0.7 2.7,-1.5 0.8,-0.7 1.9,-1.9 2.6,-3.5 0.1,-0.3 0.2,-0.6 0.2,-0.7 0,-0.2 -0.1,-0.4 -0.2,-0.8 l -6.3,-15.8 3.4,0 z"
         id="path92"
         inkscape:connector-curvature="0"
         style="fill:#f4f4f4" /></g></g><g
     id="g94"
     inkscape:export-xdpi="45"
     inkscape:export-ydpi="45"
     transform="scale(0.99818981,0.99601594)"><rect
       x="0"
       y="0"
       width="1544"
       height="500"
       id="rect96"
       style="fill:#ffffff" /><radialGradient
       id="SVGID_2_"
       cx="773.2384"
       cy="250.989"
       r="574.84479"
       gradientUnits="userSpaceOnUse"><stop
         offset="0"
         style="stop-color:#007256"
         id="stop99" /><stop
         offset="0.2635"
         style="stop-color:#006C52"
         id="stop101" /><stop
         offset="0.6954"
         style="stop-color:#005B48"
         id="stop103" /><stop
         offset="1"
         style="stop-color:#004D3F"
         id="stop105" /></radialGradient><rect
       x="0"
       y="0"
       width="1546.5"
       height="502"
       id="rect107"
       style="fill:url(#SVGID_2_)" /><g
       id="g109"><circle
         cx="127.1"
         cy="184.89999"
         r="98.099998"
         id="circle111"
         style="opacity:0.1;fill:#ffffff" /><circle
         cx="196.3"
         cy="248.7"
         r="59.299999"
         id="circle113"
         style="opacity:0.1;fill:#ffffff" /></g><rect
       x="1.3"
       y="362.70001"
       width="1545.5"
       height="138.39999"
       id="rect115"
       style="fill:#1da67a" /><g
       id="g117"><g
         id="g119"><path
           d="m 310.7,257.2 c 0,3 -2.3,5.5 -5.9,5.5 -3.5,0 -5.8,-2.5 -5.7,-5.5 -0.1,-3.2 2.2,-5.6 5.8,-5.6 3.5,0 5.8,2.4 5.8,5.6 z m -11.3,45.1 0,-35.3 11,0 0,35.3 -11,0 z"
           id="path121"
           inkscape:connector-curvature="0"
           style="fill:#ffffff" /><path
           d="m 328.9,262.9 -13.1,0 0,-9.2 37.4,0 0,9.2 -13.2,0 0,39.4 -11,0 0,-39.4 z"
           id="path123"
           inkscape:connector-curvature="0"
           style="fill:#ffffff" /><path
           d="m 357.9,251.1 11,0 0,20.1 0.1,0 c 1.2,-1.5 2.6,-2.7 4.3,-3.6 1.6,-0.9 3.7,-1.4 5.7,-1.4 7,0 12.3,4.8 12.3,15.4 l 0,20.6 -11,0 0,-19.4 c 0,-4.6 -1.6,-7.8 -5.7,-7.8 -2.9,0 -4.7,1.9 -5.5,3.8 -0.3,0.7 -0.4,1.7 -0.4,2.5 l 0,20.9 -11,0 0,-51.1 z"
           id="path125"
           inkscape:connector-curvature="0"
           style="fill:#ffffff" /><path
           d="m 435,284.2 c 0,12.9 -9.2,18.8 -18.6,18.8 -10.3,0 -18.3,-6.8 -18.3,-18.2 0,-11.4 7.5,-18.7 18.8,-18.7 10.9,0.1 18.1,7.5 18.1,18.1 z m -25.5,0.4 c 0,6.1 2.5,10.6 7.2,10.6 4.3,0 7,-4.3 7,-10.6 0,-5.3 -2,-10.6 -7,-10.6 -5.3,0 -7.2,5.4 -7.2,10.6 z"
           id="path127"
           inkscape:connector-curvature="0"
           style="fill:#ffffff" /><path
           d="m 475,291 c 0,4.6 0.1,8.4 0.3,11.3 l -9.5,0 -0.5,-5 -0.2,0 c -1.4,2.2 -4.7,5.8 -11,5.8 -7.1,0 -12.4,-4.5 -12.4,-15.4 l 0,-20.7 11,0 0,19 c 0,5.1 1.7,8.2 5.5,8.2 3,0 4.8,-2.1 5.5,-3.8 0.3,-0.6 0.4,-1.5 0.4,-2.4 l 0,-21 11,0 0,24 z"
           id="path129"
           inkscape:connector-curvature="0"
           style="fill:#ffffff" /><path
           d="m 517.5,267 c -0.1,2.2 -0.3,5.2 -0.3,10.5 l 0,19.7 c 0,6.8 -1.4,12.3 -5.3,15.9 -3.9,3.3 -9.2,4.3 -14.4,4.3 -4.6,0 -9.5,-0.9 -12.7,-2.7 l 2.2,-8.3 c 2.2,1.3 6.1,2.7 10.2,2.7 5.2,0 9.2,-2.8 9.2,-9.3 l 0,-2.3 -0.1,0 c -2.1,3 -5.5,4.6 -9.5,4.6 -8.7,0 -14.9,-7.1 -14.9,-17.2 0,-11.3 7.4,-18.5 16,-18.5 4.8,0 7.9,2.1 9.7,5 l 0.1,0 0.4,-4.2 9.4,0 z m -11.2,14.4 c 0,-0.7 -0.1,-1.4 -0.2,-2 -0.8,-2.9 -2.9,-4.8 -5.9,-4.8 -4,0 -7.2,3.6 -7.2,10 0,5.3 2.6,9.4 7.2,9.4 2.8,0 5.1,-1.9 5.8,-4.5 0.3,-0.8 0.4,-1.9 0.4,-2.9 l 0,-5.2 z"
           id="path131"
           inkscape:connector-curvature="0"
           style="fill:#ffffff" /><path
           d="m 526.1,251.1 11,0 0,20.1 0.1,0 c 1.2,-1.5 2.6,-2.7 4.3,-3.6 1.6,-0.9 3.7,-1.4 5.7,-1.4 7,0 12.3,4.8 12.3,15.4 l 0,20.6 -11,0 0,-19.4 c 0,-4.6 -1.6,-7.8 -5.7,-7.8 -2.9,0 -4.7,1.9 -5.5,3.8 -0.3,0.7 -0.4,1.7 -0.4,2.5 l 0,20.9 -11,0 0,-51.1 z"
           id="path133"
           inkscape:connector-curvature="0"
           style="fill:#ffffff" /><path
           d="m 580.2,256.9 0,10.1 7.9,0 0,8.1 -7.9,0 0,12.8 c 0,4.3 1,6.2 4.3,6.2 1.4,0 2.5,-0.1 3.2,-0.3 l 0.1,8.3 c -1.4,0.6 -4,0.9 -7.1,0.9 -3.5,0 -6.5,-1.2 -8.2,-3 -2,-2.1 -3,-5.5 -3,-10.5 l 0,-14.4 -4.7,0 0,-8.1 4.7,0 0,-7.6 10.7,-2.5 z"
           id="path135"
           inkscape:connector-curvature="0"
           style="fill:#ffffff" /><path
           d="m 594.3,292.7 c 2,1.2 6.2,2.7 9.5,2.7 3.3,0 4.7,-1.2 4.7,-3 0,-1.8 -1.1,-2.7 -5.2,-4 -7.3,-2.5 -10.1,-6.4 -10,-10.6 0,-6.6 5.6,-11.5 14.4,-11.5 4.1,0 7.8,0.9 10,2 l -1.9,7.6 c -1.6,-0.9 -4.6,-2 -7.6,-2 -2.7,0 -4.2,1.1 -4.2,2.9 0,1.7 1.4,2.5 5.7,4 6.7,2.3 9.5,5.7 9.6,10.9 0,6.6 -5.2,11.4 -15.3,11.4 -4.6,0 -8.7,-1 -11.4,-2.5 l 1.7,-7.9 z"
           id="path137"
           inkscape:connector-curvature="0"
           style="fill:#ffffff" /></g><g
         id="g139"><path
           d="m 741.4,259 -14.8,0 0,-5.3 36,0 0,5.3 -14.9,0 0,43.3 -6.3,0 0,-43.3 z"
           id="path141"
           inkscape:connector-curvature="0"
           style="fill:#a9a8a8" /><path
           d="m 794.2,284.5 c 0,12.9 -8.9,18.5 -17.4,18.5 -9.5,0 -16.7,-6.9 -16.7,-18 0,-11.7 7.6,-18.5 17.3,-18.5 10.1,0.1 16.8,7.4 16.8,18 z m -27.7,0.4 c 0,7.6 4.4,13.4 10.6,13.4 6.1,0 10.6,-5.7 10.6,-13.6 0,-5.9 -3,-13.4 -10.5,-13.4 -7.4,0 -10.7,7 -10.7,13.6 z"
           id="path143"
           inkscape:connector-curvature="0"
           style="fill:#a9a8a8" /><path
           d="m 833.9,284.5 c 0,12.9 -8.9,18.5 -17.4,18.5 -9.5,0 -16.7,-6.9 -16.7,-18 0,-11.7 7.6,-18.5 17.3,-18.5 10,0.1 16.8,7.4 16.8,18 z m -27.7,0.4 c 0,7.6 4.4,13.4 10.6,13.4 6.1,0 10.6,-5.7 10.6,-13.6 0,-5.9 -3,-13.4 -10.5,-13.4 -7.5,0 -10.7,7 -10.7,13.6 z"
           id="path145"
           inkscape:connector-curvature="0"
           style="fill:#a9a8a8" /><path
           d="m 841.9,251.1 6.3,0 0,51.2 -6.3,0 0,-51.2 z"
           id="path147"
           inkscape:connector-curvature="0"
           style="fill:#a9a8a8" /><path
           d="m 866.5,257.3 0,10 9.1,0 0,4.8 -9.1,0 0,18.9 c 0,4.3 1.2,6.8 4.8,6.8 1.7,0 2.9,-0.2 3.7,-0.4 l 0.3,4.8 c -1.2,0.5 -3.2,0.9 -5.6,0.9 -3,0 -5.3,-0.9 -6.9,-2.7 -1.8,-1.9 -2.5,-5 -2.5,-9.1 l 0,-19 -5.4,0 0,-4.8 5.4,0 0,-8.5 6.2,-1.7 z"
           id="path149"
           inkscape:connector-curvature="0"
           style="fill:#a9a8a8" /><path
           d="m 889.9,257.5 c 0.1,2.2 -1.5,3.9 -4,3.9 -2.2,0 -3.8,-1.7 -3.8,-3.9 0,-2.2 1.7,-4 4,-4 2.2,0.1 3.8,1.8 3.8,4 z m -7.1,44.8 0,-34.9 6.3,0 0,34.9 -6.3,0 z"
           id="path151"
           inkscape:connector-curvature="0"
           style="fill:#a9a8a8" /><path
           d="m 899.7,278.8 c 0,-4.5 -0.1,-8.1 -0.3,-11.4 l 5.7,0 0.3,6 0.1,0 c 2.6,-4.3 6.7,-6.8 12.4,-6.8 8.4,0 14.8,7.1 14.8,17.7 0,12.6 -7.6,18.8 -15.9,18.8 -4.6,0 -8.7,-2 -10.7,-5.5 l -0.1,0 0,19 -6.3,0 0,-37.8 z m 6.2,9.3 c 0,0.9 0.1,1.8 0.3,2.6 1.2,4.4 5,7.4 9.5,7.4 6.7,0 10.6,-5.5 10.6,-13.5 0,-7 -3.7,-13 -10.4,-13 -4.3,0 -8.4,3.1 -9.6,7.9 -0.2,0.8 -0.4,1.7 -0.4,2.6 l 0,6 z"
           id="path153"
           inkscape:connector-curvature="0"
           style="fill:#a9a8a8" /><path
           d="m 993.2,300.1 c -2.8,1 -8.4,2.7 -14.9,2.7 -7.4,0 -13.4,-1.9 -18.2,-6.4 -4.2,-4 -6.8,-10.5 -6.8,-18.1 0.1,-14.5 10,-25.1 26.3,-25.1 5.6,0 10,1.2 12.1,2.2 l -1.5,5.1 c -2.6,-1.2 -5.8,-2.1 -10.7,-2.1 -11.8,0 -19.6,7.4 -19.6,19.6 0,12.3 7.4,19.6 18.8,19.6 4.1,0 6.9,-0.6 8.4,-1.3 l 0,-14.5 -9.9,0 0,-5.1 16,0 0,23.4 z"
           id="path155"
           inkscape:connector-curvature="0"
           style="fill:#a9a8a8" /><path
           d="m 1002.6,251.1 6.3,0 0,51.2 -6.3,0 0,-51.2 z"
           id="path157"
           inkscape:connector-curvature="0"
           style="fill:#a9a8a8" /><path
           d="m 1051.3,284.5 c 0,12.9 -8.9,18.5 -17.4,18.5 -9.5,0 -16.7,-6.9 -16.7,-18 0,-11.7 7.6,-18.5 17.3,-18.5 10,0.1 16.8,7.4 16.8,18 z m -27.7,0.4 c 0,7.6 4.4,13.4 10.6,13.4 6.1,0 10.6,-5.7 10.6,-13.6 0,-5.9 -3,-13.4 -10.5,-13.4 -7.5,0 -10.7,7 -10.7,13.6 z"
           id="path159"
           inkscape:connector-curvature="0"
           style="fill:#a9a8a8" /><path
           d="m 1058.4,295.8 c 1.9,1.2 5.2,2.5 8.4,2.5 4.6,0 6.8,-2.3 6.8,-5.2 0,-3 -1.8,-4.7 -6.5,-6.4 -6.3,-2.2 -9.2,-5.7 -9.2,-9.9 0,-5.6 4.5,-10.2 12,-10.2 3.5,0 6.6,1 8.6,2.2 l -1.6,4.6 c -1.4,-0.9 -3.9,-2 -7.1,-2 -3.8,0 -5.8,2.2 -5.8,4.8 0,2.9 2.1,4.2 6.6,5.9 6.1,2.3 9.2,5.3 9.2,10.5 0,6.1 -4.8,10.5 -13.1,10.5 -3.8,0 -7.4,-0.9 -9.8,-2.4 l 1.5,-4.9 z"
           id="path161"
           inkscape:connector-curvature="0"
           style="fill:#a9a8a8" /><path
           d="m 1087,295.8 c 1.9,1.2 5.2,2.5 8.4,2.5 4.6,0 6.8,-2.3 6.8,-5.2 0,-3 -1.8,-4.7 -6.5,-6.4 -6.3,-2.2 -9.2,-5.7 -9.2,-9.9 0,-5.6 4.5,-10.2 12,-10.2 3.5,0 6.6,1 8.6,2.2 l -1.6,4.6 c -1.4,-0.9 -3.9,-2 -7.1,-2 -3.8,0 -5.8,2.2 -5.8,4.8 0,2.9 2.1,4.2 6.6,5.9 6.1,2.3 9.2,5.3 9.2,10.5 0,6.1 -4.8,10.5 -13.1,10.5 -3.8,0 -7.4,-0.9 -9.8,-2.4 l 1.5,-4.9 z"
           id="path163"
           inkscape:connector-curvature="0"
           style="fill:#a9a8a8" /><path
           d="m 1135.8,302.3 -0.5,-4.4 -0.2,0 c -1.9,2.7 -5.7,5.2 -10.7,5.2 -7.1,0 -10.7,-5 -10.7,-10 0,-8.4 7.5,-13.1 21,-13 l 0,-0.7 c 0,-2.9 -0.8,-8.1 -7.9,-8.1 -3.2,0 -6.6,1 -9.1,2.6 l -1.4,-4.2 c 2.9,-1.9 7.1,-3.1 11.5,-3.1 10.7,0 13.3,7.3 13.3,14.3 l 0,13.1 c 0,3 0.1,6 0.6,8.4 l -5.9,0 z m -1,-17.8 c -6.9,-0.1 -14.8,1.1 -14.8,7.9 0,4.1 2.7,6.1 6,6.1 4.5,0 7.4,-2.9 8.4,-5.8 0.2,-0.6 0.4,-1.4 0.4,-2 l 0,-6.2 z"
           id="path165"
           inkscape:connector-curvature="0"
           style="fill:#a9a8a8" /><path
           d="m 1151.2,278.3 c 0,-4.1 -0.1,-7.6 -0.3,-10.9 l 5.6,0 0.2,6.9 0.3,0 c 1.6,-4.7 5.4,-7.6 9.7,-7.6 0.7,0 1.2,0.1 1.8,0.2 l 0,6 c -0.6,-0.1 -1.3,-0.2 -2.2,-0.2 -4.5,0 -7.6,3.4 -8.5,8.2 -0.1,0.9 -0.3,1.9 -0.3,3 l 0,18.6 -6.3,0 0,-24.2 z"
           id="path167"
           inkscape:connector-curvature="0"
           style="fill:#a9a8a8" /><path
           d="m 1178.9,267.4 7.6,20.6 c 0.8,2.3 1.7,5 2.2,7.1 l 0.1,0 c 0.6,-2.1 1.4,-4.8 2.2,-7.3 l 6.9,-20.5 6.7,0 -9.5,24.9 c -4.5,12 -7.6,18.1 -12,21.9 -3.1,2.7 -6.2,3.8 -7.8,4.1 l -1.6,-5.3 c 1.6,-0.5 3.7,-1.5 5.6,-3.1 1.7,-1.4 3.9,-3.8 5.3,-7.1 0.3,-0.6 0.5,-1.2 0.5,-1.5 0,-0.4 -0.1,-0.9 -0.4,-1.7 l -12.9,-32.2 7.1,0 z"
           id="path169"
           inkscape:connector-curvature="0"
           style="fill:#a9a8a8" /></g></g><path
       d="m 407.6,180.1 212,-0.3 50.5,73.8 52.7,-73.8 436.8,0.3 c 12.5,0 22.8,-10.3 22.8,-22.8 l 0,-50.6 c 0,-12.5 -10.3,-22.8 -22.8,-22.8 l -751.9,0 c -12.5,0 -22.8,10.3 -22.8,22.8 l 0,50.6 c -0.1,12.6 10.2,22.8 22.7,22.8 z"
       id="path171"
       inkscape:connector-curvature="0"
       style="fill:#f4f4f4" /><g
       id="g173"><circle
         cx="1448.7"
         cy="159.3"
         r="98.099998"
         id="circle175"
         style="opacity:0.1;fill:#ffffff" /><circle
         cx="1379.5"
         cy="95.5"
         r="59.299999"
         id="circle177"
         style="opacity:0.1;fill:#ffffff" /></g><circle
       cx="267.20001"
       cy="154.5"
       r="17.799999"
       id="circle179"
       style="opacity:0.2;fill:#ffffff" /><circle
       cx="1277.8"
       cy="165.3"
       r="23.6"
       id="circle181"
       style="opacity:0.2;fill:#ffffff" /><g
       id="g183"><path
         d="m 120.8,445.7 c -1.6,0.8 -4.9,1.6 -9.1,1.6 -9.7,0 -17.1,-6.1 -17.1,-17.5 0,-10.8 7.3,-18.1 18,-18.1 4.3,0 7,0.9 8.2,1.5 l -1.1,3.6 c -1.7,-0.8 -4.1,-1.4 -7,-1.4 -8.1,0 -13.5,5.2 -13.5,14.2 0,8.5 4.9,13.9 13.3,13.9 2.7,0 5.5,-0.6 7.3,-1.4 l 1,3.6 z"
         id="path185"
         inkscape:connector-curvature="0"
         style="fill:#ffffff" /><path
         d="m 126.1,429.7 c 0,-2.9 -0.1,-5.4 -0.2,-7.7 l 3.9,0 0.2,4.9 0.2,0 c 1.1,-3.3 3.8,-5.4 6.9,-5.4 0.5,0 0.9,0.1 1.3,0.2 l 0,4.3 c -0.5,-0.1 -0.9,-0.2 -1.5,-0.2 -3.2,0 -5.4,2.4 -6,5.8 -0.1,0.6 -0.2,1.3 -0.2,2.1 l 0,13.2 -4.5,0 0,-17.2 z"
         id="path187"
         inkscape:connector-curvature="0"
         style="fill:#ffffff" /><path
         d="m 144.9,435.2 c 0.1,6.1 4,8.6 8.5,8.6 3.2,0 5.2,-0.6 6.9,-1.3 l 0.8,3.2 c -1.6,0.7 -4.3,1.5 -8.2,1.5 -7.6,0 -12.2,-5 -12.2,-12.5 0,-7.5 4.4,-13.4 11.6,-13.4 8.1,0 10.2,7.1 10.2,11.7 0,0.9 -0.1,1.6 -0.2,2.1 l -17.4,0 z m 13.2,-3.2 c 0.1,-2.9 -1.2,-7.3 -6.3,-7.3 -4.6,0 -6.6,4.2 -6.9,7.3 l 13.2,0 z"
         id="path189"
         inkscape:connector-curvature="0"
         style="fill:#ffffff" /><path
         d="m 181.8,446.8 -0.4,-3.1 -0.2,0 c -1.4,1.9 -4,3.7 -7.6,3.7 -5,0 -7.6,-3.5 -7.6,-7.1 0,-6 5.3,-9.3 14.9,-9.2 l 0,-0.5 c 0,-2 -0.6,-5.7 -5.6,-5.7 -2.3,0 -4.7,0.7 -6.5,1.8 l -1,-3 c 2,-1.3 5,-2.2 8.1,-2.2 7.6,0 9.4,5.2 9.4,10.1 l 0,9.3 c 0,2.2 0.1,4.3 0.4,5.9 l -3.9,0 z m -0.7,-12.7 c -4.9,-0.1 -10.5,0.8 -10.5,5.6 0,2.9 1.9,4.3 4.3,4.3 3.2,0 5.3,-2 6,-4.1 0.2,-0.5 0.3,-1 0.3,-1.4 l 0,-4.4 z"
         id="path191"
         inkscape:connector-curvature="0"
         style="fill:#ffffff" /><path
         d="m 198,414.9 0,7.1 6.5,0 0,3.4 -6.5,0 0,13.4 c 0,3.1 0.9,4.8 3.4,4.8 1.2,0 2,-0.2 2.6,-0.3 l 0.2,3.4 c -0.9,0.4 -2.3,0.6 -4,0.6 -2.1,0 -3.8,-0.7 -4.9,-1.9 -1.3,-1.3 -1.7,-3.5 -1.7,-6.5 l 0,-13.5 -3.8,0 0,-3.4 3.8,0 0,-5.9 4.4,-1.2 z"
         id="path193"
         inkscape:connector-curvature="0"
         style="fill:#ffffff" /><path
         d="m 211.7,435.2 c 0.1,6.1 4,8.6 8.5,8.6 3.2,0 5.2,-0.6 6.9,-1.3 l 0.8,3.2 c -1.6,0.7 -4.3,1.5 -8.2,1.5 -7.6,0 -12.2,-5 -12.2,-12.5 0,-7.5 4.4,-13.4 11.6,-13.4 8.1,0 10.2,7.1 10.2,11.7 0,0.9 -0.1,1.6 -0.2,2.1 l -17.4,0 z m 13.2,-3.2 c 0.1,-2.9 -1.2,-7.3 -6.3,-7.3 -4.6,0 -6.6,4.2 -6.9,7.3 l 13.2,0 z"
         id="path195"
         inkscape:connector-curvature="0"
         style="fill:#ffffff" /><path
         d="m 244,446.8 c 0.1,-1.7 0.2,-4.2 0.2,-6.4 l 0,-30 4.5,0 0,15.6 0.1,0 c 1.6,-2.8 4.5,-4.6 8.5,-4.6 6.1,0 10.5,5.1 10.5,12.7 0,8.9 -5.6,13.3 -11.1,13.3 -3.6,0 -6.5,-1.4 -8.3,-4.7 l -0.2,0 -0.2,4.1 -4,0 z m 4.7,-9.9 c 0,0.6 0.1,1.1 0.2,1.6 0.9,3.1 3.5,5.3 6.8,5.3 4.7,0 7.5,-3.8 7.5,-9.5 0,-5 -2.6,-9.2 -7.4,-9.2 -3.1,0 -5.9,2.1 -6.9,5.5 -0.1,0.5 -0.3,1.1 -0.3,1.8 l 0,4.5 z"
         id="path197"
         inkscape:connector-curvature="0"
         style="fill:#ffffff" /><path
         d="m 275.9,435.2 c 0.1,6.1 4,8.6 8.5,8.6 3.2,0 5.2,-0.6 6.9,-1.3 l 0.8,3.2 c -1.6,0.7 -4.3,1.5 -8.2,1.5 -7.6,0 -12.2,-5 -12.2,-12.5 0,-7.5 4.4,-13.4 11.6,-13.4 8.1,0 10.2,7.1 10.2,11.7 0,0.9 -0.1,1.6 -0.2,2.1 l -17.4,0 z m 13.2,-3.2 c 0.1,-2.9 -1.2,-7.3 -6.3,-7.3 -4.6,0 -6.6,4.2 -6.9,7.3 l 13.2,0 z"
         id="path199"
         inkscape:connector-curvature="0"
         style="fill:#ffffff" /><path
         d="m 312.8,446.8 -0.4,-3.1 -0.2,0 c -1.4,1.9 -4,3.7 -7.6,3.7 -5,0 -7.6,-3.5 -7.6,-7.1 0,-6 5.3,-9.3 14.9,-9.2 l 0,-0.5 c 0,-2 -0.6,-5.7 -5.6,-5.7 -2.3,0 -4.7,0.7 -6.5,1.8 l -1,-3 c 2,-1.3 5,-2.2 8.1,-2.2 7.6,0 9.4,5.2 9.4,10.1 l 0,9.3 c 0,2.2 0.1,4.3 0.4,5.9 l -3.9,0 z m -0.7,-12.7 c -4.9,-0.1 -10.5,0.8 -10.5,5.6 0,2.9 1.9,4.3 4.3,4.3 3.2,0 5.3,-2 6,-4.1 0.2,-0.5 0.3,-1 0.3,-1.4 l 0,-4.4 z"
         id="path201"
         inkscape:connector-curvature="0"
         style="fill:#ffffff" /><path
         d="m 344.5,440 c 0,2.6 0.1,4.8 0.2,6.8 l -4,0 -0.3,-4 -0.1,0 c -1.2,2 -3.8,4.6 -8.2,4.6 -3.9,0 -8.6,-2.2 -8.6,-10.9 l 0,-14.5 4.5,0 0,13.7 c 0,4.7 1.4,7.9 5.5,7.9 3,0 5.1,-2.1 5.9,-4.1 0.3,-0.7 0.4,-1.5 0.4,-2.3 l 0,-15.2 4.5,0 0,18 z"
         id="path203"
         inkscape:connector-curvature="0"
         style="fill:#ffffff" /><path
         d="m 357.4,414.9 0,7.1 6.5,0 0,3.4 -6.5,0 0,13.4 c 0,3.1 0.9,4.8 3.4,4.8 1.2,0 2,-0.2 2.6,-0.3 l 0.2,3.4 c -0.9,0.4 -2.3,0.6 -4,0.6 -2.1,0 -3.8,-0.7 -4.9,-1.9 -1.3,-1.3 -1.7,-3.5 -1.7,-6.5 l 0,-13.5 -3.8,0 0,-3.4 3.8,0 0,-5.9 4.4,-1.2 z"
         id="path205"
         inkscape:connector-curvature="0"
         style="fill:#ffffff" /><path
         d="m 373.9,415 c 0.1,1.5 -1.1,2.8 -2.9,2.8 -1.6,0 -2.7,-1.2 -2.7,-2.8 0,-1.6 1.2,-2.8 2.8,-2.8 1.7,0 2.8,1.2 2.8,2.8 z m -5,31.8 0,-24.8 4.5,0 0,24.8 -4.5,0 z"
         id="path207"
         inkscape:connector-curvature="0"
         style="fill:#ffffff" /><path
         d="m 381.4,446.8 0,-21.4 -3.5,0 0,-3.4 3.5,0 0,-1.2 c 0,-3.5 0.8,-6.7 2.9,-8.7 1.7,-1.6 3.9,-2.3 6,-2.3 1.6,0 3,0.4 3.8,0.7 l -0.6,3.5 c -0.7,-0.3 -1.6,-0.6 -2.9,-0.6 -3.8,0 -4.8,3.4 -4.8,7.2 l 0,1.3 6,0 0,3.4 -6,0 0,21.4 -4.4,0 z"
         id="path209"
         inkscape:connector-curvature="0"
         style="fill:#ffffff" /><path
         d="m 416.6,440 c 0,2.6 0.1,4.8 0.2,6.8 l -4,0 -0.3,-4 -0.1,0 c -1.2,2 -3.8,4.6 -8.2,4.6 -3.9,0 -8.6,-2.2 -8.6,-10.9 l 0,-14.5 4.5,0 0,13.7 c 0,4.7 1.4,7.9 5.5,7.9 3,0 5.1,-2.1 5.9,-4.1 0.3,-0.7 0.4,-1.5 0.4,-2.3 l 0,-15.2 4.5,0 0,18 z"
         id="path211"
         inkscape:connector-curvature="0"
         style="fill:#ffffff" /><path
         d="m 424.1,410.4 4.5,0 0,36.4 -4.5,0 0,-36.4 z"
         id="path213"
         inkscape:connector-curvature="0"
         style="fill:#ffffff" /><path
         d="m 451,414.9 0,7.1 6.5,0 0,3.4 -6.5,0 0,13.4 c 0,3.1 0.9,4.8 3.4,4.8 1.2,0 2,-0.2 2.6,-0.3 l 0.2,3.4 c -0.9,0.4 -2.3,0.6 -4,0.6 -2.1,0 -3.8,-0.7 -4.9,-1.9 -1.3,-1.3 -1.7,-3.5 -1.7,-6.5 l 0,-13.5 -3.8,0 0,-3.4 3.8,0 0,-5.9 4.4,-1.2 z"
         id="path215"
         inkscape:connector-curvature="0"
         style="fill:#ffffff" /><path
         d="m 484.6,434.2 c 0,9.2 -6.4,13.2 -12.3,13.2 -6.7,0 -11.9,-4.9 -11.9,-12.8 0,-8.3 5.4,-13.2 12.3,-13.2 7.1,0 11.9,5.2 11.9,12.8 z m -19.7,0.3 c 0,5.4 3.1,9.5 7.5,9.5 4.3,0 7.5,-4 7.5,-9.6 0,-4.2 -2.1,-9.5 -7.4,-9.5 -5.2,-0.1 -7.6,4.8 -7.6,9.6 z"
         id="path217"
         inkscape:connector-curvature="0"
         style="fill:#ffffff" /><path
         d="m 512.8,434.2 c 0,9.2 -6.4,13.2 -12.3,13.2 -6.7,0 -11.9,-4.9 -11.9,-12.8 0,-8.3 5.4,-13.2 12.3,-13.2 7,0 11.9,5.2 11.9,12.8 z m -19.7,0.3 c 0,5.4 3.1,9.5 7.5,9.5 4.3,0 7.5,-4 7.5,-9.6 0,-4.2 -2.1,-9.5 -7.4,-9.5 -5.3,-0.1 -7.6,4.8 -7.6,9.6 z"
         id="path219"
         inkscape:connector-curvature="0"
         style="fill:#ffffff" /><path
         d="m 518.4,410.4 4.5,0 0,36.4 -4.5,0 0,-36.4 z"
         id="path221"
         inkscape:connector-curvature="0"
         style="fill:#ffffff" /><path
         d="m 536,414.9 0,7.1 6.5,0 0,3.4 -6.5,0 0,13.4 c 0,3.1 0.9,4.8 3.4,4.8 1.2,0 2,-0.2 2.6,-0.3 l 0.2,3.4 c -0.9,0.4 -2.3,0.6 -4,0.6 -2.1,0 -3.8,-0.7 -4.9,-1.9 -1.3,-1.3 -1.7,-3.5 -1.7,-6.5 l 0,-13.5 -3.8,0 0,-3.4 3.8,0 0,-5.9 4.4,-1.2 z"
         id="path223"
         inkscape:connector-curvature="0"
         style="fill:#ffffff" /><path
         d="m 552.5,415 c 0.1,1.5 -1.1,2.8 -2.9,2.8 -1.6,0 -2.7,-1.2 -2.7,-2.8 0,-1.6 1.2,-2.8 2.8,-2.8 1.7,0 2.8,1.2 2.8,2.8 z m -5,31.8 0,-24.8 4.5,0 0,24.8 -4.5,0 z"
         id="path225"
         inkscape:connector-curvature="0"
         style="fill:#ffffff" /><path
         d="m 559.5,430.1 c 0,-3.2 -0.1,-5.7 -0.2,-8.1 l 4,0 0.2,4.3 0.1,0 c 1.8,-3 4.8,-4.8 8.8,-4.8 6,0 10.5,5.1 10.5,12.6 0,8.9 -5.4,13.3 -11.3,13.3 -3.3,0 -6.1,-1.4 -7.6,-3.9 l -0.1,0 0,13.5 -4.5,0 0,-26.9 z m 4.4,6.6 c 0,0.7 0.1,1.3 0.2,1.8 0.8,3.1 3.5,5.3 6.8,5.3 4.8,0 7.5,-3.9 7.5,-9.6 0,-5 -2.6,-9.2 -7.4,-9.2 -3.1,0 -5.9,2.2 -6.8,5.6 -0.2,0.6 -0.3,1.2 -0.3,1.8 l 0,4.3 z"
         id="path227"
         inkscape:connector-curvature="0"
         style="fill:#ffffff" /><path
         d="m 588,442.2 c 1.3,0.9 3.7,1.8 5.9,1.8 3.3,0 4.8,-1.6 4.8,-3.7 0,-2.2 -1.3,-3.3 -4.6,-4.6 -4.5,-1.6 -6.6,-4 -6.6,-7 0,-4 3.2,-7.3 8.6,-7.3 2.5,0 4.7,0.7 6.1,1.5 l -1.1,3.3 c -1,-0.6 -2.8,-1.4 -5.1,-1.4 -2.7,0 -4.2,1.5 -4.2,3.4 0,2 1.5,3 4.7,4.2 4.3,1.6 6.5,3.8 6.5,7.5 0,4.4 -3.4,7.4 -9.3,7.4 -2.7,0 -5.2,-0.7 -7,-1.7 l 1.3,-3.4 z"
         id="path229"
         inkscape:connector-curvature="0"
         style="fill:#ffffff" /><path
         d="m 618.7,446.8 0,-21.4 -3.5,0 0,-3.4 3.5,0 0,-1.2 c 0,-3.5 0.8,-6.7 2.9,-8.7 1.7,-1.6 3.9,-2.3 6,-2.3 1.6,0 3,0.4 3.8,0.7 l -0.6,3.5 c -0.7,-0.3 -1.6,-0.6 -2.9,-0.6 -3.8,0 -4.8,3.4 -4.8,7.2 l 0,1.3 6,0 0,3.4 -6,0 0,21.4 -4.4,0 z"
         id="path231"
         inkscape:connector-curvature="0"
         style="fill:#ffffff" /><path
         d="m 655,434.2 c 0,9.2 -6.4,13.2 -12.3,13.2 -6.7,0 -11.9,-4.9 -11.9,-12.8 0,-8.3 5.4,-13.2 12.3,-13.2 7.1,0 11.9,5.2 11.9,12.8 z m -19.7,0.3 c 0,5.4 3.1,9.5 7.5,9.5 4.3,0 7.5,-4 7.5,-9.6 0,-4.2 -2.1,-9.5 -7.4,-9.5 -5.3,0 -7.6,4.8 -7.6,9.6 z"
         id="path233"
         inkscape:connector-curvature="0"
         style="fill:#ffffff" /><path
         d="m 660.7,429.7 c 0,-2.9 -0.1,-5.4 -0.2,-7.7 l 3.9,0 0.2,4.9 0.2,0 c 1.1,-3.3 3.8,-5.4 6.9,-5.4 0.5,0 0.9,0.1 1.3,0.2 l 0,4.3 c -0.5,-0.1 -0.9,-0.2 -1.5,-0.2 -3.2,0 -5.4,2.4 -6,5.8 -0.1,0.6 -0.2,1.3 -0.2,2.1 l 0,13.2 -4.5,0 0,-17.2 z"
         id="path235"
         inkscape:connector-curvature="0"
         style="fill:#ffffff" /><path
         d="m 708.2,410.4 0,30 c 0,2.2 0.1,4.7 0.2,6.4 l -4,0 -0.2,-4.3 -0.1,0 c -1.4,2.8 -4.4,4.9 -8.5,4.9 -6,0 -10.6,-5.1 -10.6,-12.6 -0.1,-8.2 5.1,-13.3 11.1,-13.3 3.8,0 6.4,1.8 7.5,3.8 l 0.1,0 0,-14.8 4.5,0 z m -4.5,21.7 c 0,-0.6 -0.1,-1.3 -0.2,-1.9 -0.7,-2.9 -3.1,-5.2 -6.5,-5.2 -4.7,0 -7.4,4.1 -7.4,9.6 0,5 2.5,9.2 7.3,9.2 3,0 5.8,-2 6.6,-5.4 0.2,-0.6 0.2,-1.2 0.2,-1.9 l 0,-4.4 z"
         id="path237"
         inkscape:connector-curvature="0"
         style="fill:#ffffff" /><path
         d="m 718.2,435.2 c 0.1,6.1 4,8.6 8.5,8.6 3.2,0 5.2,-0.6 6.9,-1.3 l 0.8,3.2 c -1.6,0.7 -4.3,1.5 -8.2,1.5 -7.6,0 -12.2,-5 -12.2,-12.5 0,-7.5 4.4,-13.4 11.6,-13.4 8.1,0 10.2,7.1 10.2,11.7 0,0.9 -0.1,1.6 -0.2,2.1 l -17.4,0 z m 13.2,-3.2 c 0.1,-2.9 -1.2,-7.3 -6.3,-7.3 -4.6,0 -6.6,4.2 -6.9,7.3 l 13.2,0 z"
         id="path239"
         inkscape:connector-curvature="0"
         style="fill:#ffffff" /><path
         d="m 740.8,442.2 c 1.3,0.9 3.7,1.8 5.9,1.8 3.3,0 4.8,-1.6 4.8,-3.7 0,-2.2 -1.3,-3.3 -4.6,-4.6 -4.5,-1.6 -6.6,-4 -6.6,-7 0,-4 3.2,-7.3 8.6,-7.3 2.5,0 4.7,0.7 6.1,1.5 l -1.1,3.3 c -1,-0.6 -2.8,-1.4 -5.1,-1.4 -2.7,0 -4.2,1.5 -4.2,3.4 0,2 1.5,3 4.7,4.2 4.3,1.6 6.5,3.8 6.5,7.5 0,4.4 -3.4,7.4 -9.3,7.4 -2.7,0 -5.2,-0.7 -7,-1.7 l 1.3,-3.4 z"
         id="path241"
         inkscape:connector-curvature="0"
         style="fill:#ffffff" /><path
         d="m 779.3,445.9 c -1.2,0.6 -3.8,1.4 -7.1,1.4 -7.5,0 -12.3,-5.1 -12.3,-12.7 0,-7.6 5.2,-13.2 13.3,-13.2 2.7,0 5,0.7 6.3,1.3 l -1,3.5 c -1.1,-0.6 -2.8,-1.2 -5.2,-1.2 -5.7,0 -8.8,4.2 -8.8,9.4 0,5.7 3.7,9.3 8.6,9.3 2.6,0 4.3,-0.7 5.5,-1.2 l 0.7,3.4 z"
         id="path243"
         inkscape:connector-curvature="0"
         style="fill:#ffffff" /><path
         d="m 784.6,429.7 c 0,-2.9 -0.1,-5.4 -0.2,-7.7 l 3.9,0 0.2,4.9 0.2,0 c 1.1,-3.3 3.8,-5.4 6.9,-5.4 0.5,0 0.9,0.1 1.3,0.2 l 0,4.3 c -0.5,-0.1 -0.9,-0.2 -1.5,-0.2 -3.2,0 -5.4,2.4 -6,5.8 -0.1,0.6 -0.2,1.3 -0.2,2.1 l 0,13.2 -4.5,0 0,-17.2 z"
         id="path245"
         inkscape:connector-curvature="0"
         style="fill:#ffffff" /><path
         d="m 806.6,415 c 0.1,1.5 -1.1,2.8 -2.9,2.8 -1.6,0 -2.7,-1.2 -2.7,-2.8 0,-1.6 1.2,-2.8 2.8,-2.8 1.7,0 2.8,1.2 2.8,2.8 z m -5,31.8 0,-24.8 4.5,0 0,24.8 -4.5,0 z"
         id="path247"
         inkscape:connector-curvature="0"
         style="fill:#ffffff" /><path
         d="m 813.6,430.1 c 0,-3.2 -0.1,-5.7 -0.2,-8.1 l 4,0 0.2,4.3 0.1,0 c 1.8,-3 4.8,-4.8 8.8,-4.8 6,0 10.5,5.1 10.5,12.6 0,8.9 -5.4,13.3 -11.3,13.3 -3.3,0 -6.1,-1.4 -7.6,-3.9 l -0.1,0 0,13.5 -4.5,0 0,-26.9 z m 4.4,6.6 c 0,0.7 0.1,1.3 0.2,1.8 0.8,3.1 3.5,5.3 6.8,5.3 4.8,0 7.5,-3.9 7.5,-9.6 0,-5 -2.6,-9.2 -7.4,-9.2 -3.1,0 -5.9,2.2 -6.8,5.6 -0.2,0.6 -0.3,1.2 -0.3,1.8 l 0,4.3 z"
         id="path249"
         inkscape:connector-curvature="0"
         style="fill:#ffffff" /><path
         d="m 848.1,414.9 0,7.1 6.5,0 0,3.4 -6.5,0 0,13.4 c 0,3.1 0.9,4.8 3.4,4.8 1.2,0 2,-0.2 2.6,-0.3 l 0.2,3.4 c -0.9,0.4 -2.3,0.6 -4,0.6 -2.1,0 -3.8,-0.7 -4.9,-1.9 -1.3,-1.3 -1.7,-3.5 -1.7,-6.5 l 0,-13.5 -3.8,0 0,-3.4 3.8,0 0,-5.9 4.4,-1.2 z"
         id="path251"
         inkscape:connector-curvature="0"
         style="fill:#ffffff" /><path
         d="m 864.7,415 c 0.1,1.5 -1.1,2.8 -2.9,2.8 -1.6,0 -2.7,-1.2 -2.7,-2.8 0,-1.6 1.2,-2.8 2.8,-2.8 1.7,0 2.8,1.2 2.8,2.8 z m -5,31.8 0,-24.8 4.5,0 0,24.8 -4.5,0 z"
         id="path253"
         inkscape:connector-curvature="0"
         style="fill:#ffffff" /><path
         d="m 894.1,434.2 c 0,9.2 -6.4,13.2 -12.3,13.2 -6.7,0 -11.9,-4.9 -11.9,-12.8 0,-8.3 5.4,-13.2 12.3,-13.2 7.1,0 11.9,5.2 11.9,12.8 z m -19.7,0.3 c 0,5.4 3.1,9.5 7.5,9.5 4.3,0 7.5,-4 7.5,-9.6 0,-4.2 -2.1,-9.5 -7.4,-9.5 -5.3,-0.1 -7.6,4.8 -7.6,9.6 z"
         id="path255"
         inkscape:connector-curvature="0"
         style="fill:#ffffff" /><path
         d="m 899.8,428.7 c 0,-2.6 -0.1,-4.7 -0.2,-6.7 l 4,0 0.3,4.1 0.1,0 c 1.2,-2.4 4.1,-4.7 8.2,-4.7 3.4,0 8.8,2 8.8,10.6 l 0,14.8 -4.5,0 0,-14.3 c 0,-4 -1.5,-7.3 -5.7,-7.3 -3,0 -5.3,2.1 -6,4.6 -0.2,0.6 -0.3,1.3 -0.3,2.1 l 0,14.9 -4.5,0 0,-18.1 z"
         id="path257"
         inkscape:connector-curvature="0"
         style="fill:#ffffff" /><path
         d="m 927.6,442.2 c 1.3,0.9 3.7,1.8 5.9,1.8 3.3,0 4.8,-1.6 4.8,-3.7 0,-2.2 -1.3,-3.3 -4.6,-4.6 -4.5,-1.6 -6.6,-4 -6.6,-7 0,-4 3.2,-7.3 8.6,-7.3 2.5,0 4.7,0.7 6.1,1.5 l -1.1,3.3 c -1,-0.6 -2.8,-1.4 -5.1,-1.4 -2.7,0 -4.2,1.5 -4.2,3.4 0,2 1.5,3 4.7,4.2 4.3,1.6 6.5,3.8 6.5,7.5 0,4.4 -3.4,7.4 -9.3,7.4 -2.7,0 -5.2,-0.7 -7,-1.7 l 1.3,-3.4 z"
         id="path259"
         inkscape:connector-curvature="0"
         style="fill:#ffffff" /><path
         d="m 980.3,434.2 c 0,9.2 -6.4,13.2 -12.3,13.2 -6.7,0 -11.9,-4.9 -11.9,-12.8 0,-8.3 5.4,-13.2 12.3,-13.2 7.1,0 11.9,5.2 11.9,12.8 z m -19.7,0.3 c 0,5.4 3.1,9.5 7.5,9.5 4.3,0 7.5,-4 7.5,-9.6 0,-4.2 -2.1,-9.5 -7.4,-9.5 -5.3,0 -7.6,4.8 -7.6,9.6 z"
         id="path261"
         inkscape:connector-curvature="0"
         style="fill:#ffffff" /><path
         d="m 986,429.7 c 0,-2.9 -0.1,-5.4 -0.2,-7.7 l 3.9,0 0.2,4.9 0.2,0 c 1.1,-3.3 3.8,-5.4 6.9,-5.4 0.5,0 0.9,0.1 1.3,0.2 l 0,4.3 c -0.5,-0.1 -0.9,-0.2 -1.5,-0.2 -3.2,0 -5.4,2.4 -6,5.8 -0.1,0.6 -0.2,1.3 -0.2,2.1 l 0,13.2 -4.6,0 0,-17.2 z"
         id="path263"
         inkscape:connector-curvature="0"
         style="fill:#ffffff" /><path
         d="m 1033.5,422 c -0.1,1.8 -0.2,3.8 -0.2,6.8 l 0,14.4 c 0,5.7 -1.1,9.2 -3.5,11.3 -2.4,2.3 -5.9,3 -9,3 -3,0 -6.3,-0.7 -8.2,-2 l 1.1,-3.4 c 1.6,1 4.2,1.9 7.3,1.9 4.6,0 8,-2.4 8,-8.7 l 0,-2.8 -0.1,0 c -1.4,2.3 -4,4.2 -7.9,4.2 -6.1,0 -10.6,-5.2 -10.6,-12.1 0,-8.4 5.5,-13.2 11.2,-13.2 4.3,0 6.7,2.3 7.7,4.3 l 0.1,0 0.2,-3.7 3.9,0 z m -4.7,9.8 c 0,-0.8 -0.1,-1.4 -0.3,-2 -0.8,-2.6 -3,-4.8 -6.3,-4.8 -4.3,0 -7.4,3.6 -7.4,9.4 0,4.9 2.5,8.9 7.3,8.9 2.8,0 5.3,-1.7 6.3,-4.6 0.3,-0.8 0.4,-1.6 0.4,-2.4 l 0,-4.5 z"
         id="path265"
         inkscape:connector-curvature="0"
         style="fill:#ffffff" /><path
         d="m 1040.7,410.4 4.5,0 0,36.4 -4.5,0 0,-36.4 z"
         id="path267"
         inkscape:connector-curvature="0"
         style="fill:#ffffff" /><path
         d="m 1075.3,434.2 c 0,9.2 -6.4,13.2 -12.3,13.2 -6.7,0 -11.9,-4.9 -11.9,-12.8 0,-8.3 5.4,-13.2 12.3,-13.2 7.1,0 11.9,5.2 11.9,12.8 z m -19.7,0.3 c 0,5.4 3.1,9.5 7.5,9.5 4.3,0 7.5,-4 7.5,-9.6 0,-4.2 -2.1,-9.5 -7.4,-9.5 -5.3,-0.1 -7.6,4.8 -7.6,9.6 z"
         id="path269"
         inkscape:connector-curvature="0"
         style="fill:#ffffff" /><path
         d="m 1080.3,442.2 c 1.3,0.9 3.7,1.8 5.9,1.8 3.3,0 4.8,-1.6 4.8,-3.7 0,-2.2 -1.3,-3.3 -4.6,-4.6 -4.5,-1.6 -6.6,-4 -6.6,-7 0,-4 3.2,-7.3 8.6,-7.3 2.5,0 4.7,0.7 6.1,1.5 l -1.1,3.3 c -1,-0.6 -2.8,-1.4 -5.1,-1.4 -2.7,0 -4.2,1.5 -4.2,3.4 0,2 1.5,3 4.7,4.2 4.3,1.6 6.5,3.8 6.5,7.5 0,4.4 -3.4,7.4 -9.3,7.4 -2.7,0 -5.2,-0.7 -7,-1.7 l 1.3,-3.4 z"
         id="path271"
         inkscape:connector-curvature="0"
         style="fill:#ffffff" /><path
         d="m 1100.6,442.2 c 1.3,0.9 3.7,1.8 5.9,1.8 3.3,0 4.8,-1.6 4.8,-3.7 0,-2.2 -1.3,-3.3 -4.6,-4.6 -4.5,-1.6 -6.6,-4 -6.6,-7 0,-4 3.2,-7.3 8.6,-7.3 2.5,0 4.7,0.7 6.1,1.5 l -1.1,3.3 c -1,-0.6 -2.8,-1.4 -5.1,-1.4 -2.7,0 -4.2,1.5 -4.2,3.4 0,2 1.5,3 4.7,4.2 4.3,1.6 6.5,3.8 6.5,7.5 0,4.4 -3.4,7.4 -9.3,7.4 -2.7,0 -5.2,-0.7 -7,-1.7 l 1.3,-3.4 z"
         id="path273"
         inkscape:connector-curvature="0"
         style="fill:#ffffff" /><path
         d="m 1135.3,446.8 -0.4,-3.1 -0.2,0 c -1.4,1.9 -4,3.7 -7.6,3.7 -5,0 -7.6,-3.5 -7.6,-7.1 0,-6 5.3,-9.3 14.9,-9.2 l 0,-0.5 c 0,-2 -0.6,-5.7 -5.6,-5.7 -2.3,0 -4.7,0.7 -6.5,1.8 l -1,-3 c 2,-1.3 5,-2.2 8.1,-2.2 7.6,0 9.4,5.2 9.4,10.1 l 0,9.3 c 0,2.2 0.1,4.3 0.4,5.9 l -3.9,0 z m -0.7,-12.7 c -4.9,-0.1 -10.5,0.8 -10.5,5.6 0,2.9 1.9,4.3 4.3,4.3 3.2,0 5.3,-2 6,-4.1 0.2,-0.5 0.3,-1 0.3,-1.4 l 0,-4.4 z"
         id="path275"
         inkscape:connector-curvature="0"
         style="fill:#ffffff" /><path
         d="m 1146.2,429.7 c 0,-2.9 -0.1,-5.4 -0.2,-7.7 l 3.9,0 0.2,4.9 0.2,0 c 1.1,-3.3 3.8,-5.4 6.9,-5.4 0.5,0 0.9,0.1 1.3,0.2 l 0,4.3 c -0.5,-0.1 -0.9,-0.2 -1.5,-0.2 -3.2,0 -5.4,2.4 -6,5.8 -0.1,0.6 -0.2,1.3 -0.2,2.1 l 0,13.2 -4.5,0 0,-17.2 z"
         id="path277"
         inkscape:connector-curvature="0"
         style="fill:#ffffff" /><path
         d="m 1165.9,422 5.4,14.7 c 0.6,1.6 1.2,3.6 1.6,5.1 l 0.1,0 c 0.5,-1.5 1,-3.4 1.6,-5.2 l 4.9,-14.6 4.8,0 -6.8,17.7 c -3.2,8.5 -5.4,12.9 -8.5,15.5 -2.2,1.9 -4.4,2.7 -5.5,2.9 l -1.1,-3.8 c 1.1,-0.4 2.6,-1.1 3.9,-2.2 1.2,-1 2.8,-2.7 3.8,-5 0.2,-0.5 0.4,-0.8 0.4,-1.1 0,-0.3 -0.1,-0.6 -0.3,-1.2 l -9.2,-22.8 4.9,0 z"
         id="path279"
         inkscape:connector-curvature="0"
         style="fill:#ffffff" /><path
         d="m 1203.2,414.9 0,7.1 6.5,0 0,3.4 -6.5,0 0,13.4 c 0,3.1 0.9,4.8 3.4,4.8 1.2,0 2,-0.2 2.6,-0.3 l 0.2,3.4 c -0.9,0.4 -2.3,0.6 -4,0.6 -2.1,0 -3.8,-0.7 -4.9,-1.9 -1.3,-1.3 -1.7,-3.5 -1.7,-6.5 l 0,-13.5 -3.8,0 0,-3.4 3.8,0 0,-5.9 4.4,-1.2 z"
         id="path281"
         inkscape:connector-curvature="0"
         style="fill:#ffffff" /><path
         d="m 1216.9,435.2 c 0.1,6.1 4,8.6 8.5,8.6 3.2,0 5.2,-0.6 6.9,-1.3 l 0.8,3.2 c -1.6,0.7 -4.3,1.5 -8.2,1.5 -7.6,0 -12.2,-5 -12.2,-12.5 0,-7.5 4.4,-13.4 11.6,-13.4 8.1,0 10.2,7.1 10.2,11.7 0,0.9 -0.1,1.6 -0.2,2.1 l -17.4,0 z m 13.2,-3.2 c 0.1,-2.9 -1.2,-7.3 -6.3,-7.3 -4.6,0 -6.6,4.2 -6.9,7.3 l 13.2,0 z"
         id="path283"
         inkscape:connector-curvature="0"
         style="fill:#ffffff" /><path
         d="m 1240.1,429.7 c 0,-2.9 -0.1,-5.4 -0.2,-7.7 l 3.9,0 0.2,4.9 0.2,0 c 1.1,-3.3 3.8,-5.4 6.9,-5.4 0.5,0 0.9,0.1 1.3,0.2 l 0,4.3 c -0.5,-0.1 -0.9,-0.2 -1.5,-0.2 -3.2,0 -5.4,2.4 -6,5.8 -0.1,0.6 -0.2,1.3 -0.2,2.1 l 0,13.2 -4.5,0 0,-17.2 z"
         id="path285"
         inkscape:connector-curvature="0"
         style="fill:#ffffff" /><path
         d="m 1257,428.7 c 0,-2.6 -0.1,-4.7 -0.2,-6.7 l 3.9,0 0.2,4 0.2,0 c 1.4,-2.4 3.7,-4.6 7.8,-4.6 3.4,0 5.9,2 7,5 l 0.1,0 c 0.8,-1.4 1.7,-2.5 2.8,-3.2 1.5,-1.1 3.1,-1.7 5.5,-1.7 3.3,0 8.1,2.2 8.1,10.8 l 0,14.6 -4.4,0 0,-14 c 0,-4.8 -1.7,-7.6 -5.4,-7.6 -2.6,0 -4.6,1.9 -5.3,4.1 -0.2,0.6 -0.4,1.4 -0.4,2.3 l 0,15.3 -4.4,0 0,-14.9 c 0,-3.9 -1.7,-6.8 -5.2,-6.8 -2.8,0 -4.9,2.3 -5.6,4.5 -0.3,0.7 -0.4,1.4 -0.4,2.2 l 0,15 -4.4,0 0,-18.3 z"
         id="path287"
         inkscape:connector-curvature="0"
         style="fill:#ffffff" /><path
         d="m 1299.1,442.2 c 1.3,0.9 3.7,1.8 5.9,1.8 3.3,0 4.8,-1.6 4.8,-3.7 0,-2.2 -1.3,-3.3 -4.6,-4.6 -4.5,-1.6 -6.6,-4 -6.6,-7 0,-4 3.2,-7.3 8.6,-7.3 2.5,0 4.7,0.7 6.1,1.5 l -1.1,3.3 c -1,-0.6 -2.8,-1.4 -5.1,-1.4 -2.7,0 -4.2,1.5 -4.2,3.4 0,2 1.5,3 4.7,4.2 4.3,1.6 6.5,3.8 6.5,7.5 0,4.4 -3.4,7.4 -9.3,7.4 -2.7,0 -5.2,-0.7 -7,-1.7 l 1.3,-3.4 z"
         id="path289"
         inkscape:connector-curvature="0"
         style="fill:#ffffff" /><path
         d="m 1331.9,435.2 c 0.1,6.1 4,8.6 8.5,8.6 3.2,0 5.2,-0.6 6.9,-1.3 l 0.8,3.2 c -1.6,0.7 -4.3,1.5 -8.2,1.5 -7.6,0 -12.2,-5 -12.2,-12.5 0,-7.5 4.4,-13.4 11.6,-13.4 8.1,0 10.2,7.1 10.2,11.7 0,0.9 -0.1,1.6 -0.2,2.1 l -17.4,0 z m 13.2,-3.2 c 0.1,-2.9 -1.2,-7.3 -6.3,-7.3 -4.6,0 -6.6,4.2 -6.9,7.3 l 13.2,0 z"
         id="path291"
         inkscape:connector-curvature="0"
         style="fill:#ffffff" /><path
         d="m 1368.8,446.8 -0.4,-3.1 -0.2,0 c -1.4,1.9 -4,3.7 -7.6,3.7 -5,0 -7.6,-3.5 -7.6,-7.1 0,-6 5.3,-9.3 14.9,-9.2 l 0,-0.5 c 0,-2 -0.6,-5.7 -5.6,-5.7 -2.3,0 -4.7,0.7 -6.5,1.8 l -1,-3 c 2,-1.3 5,-2.2 8.1,-2.2 7.6,0 9.4,5.2 9.4,10.1 l 0,9.3 c 0,2.2 0.1,4.3 0.4,5.9 l -3.9,0 z m -0.7,-12.7 c -4.9,-0.1 -10.5,0.8 -10.5,5.6 0,2.9 1.9,4.3 4.3,4.3 3.2,0 5.3,-2 6,-4.1 0.2,-0.5 0.3,-1 0.3,-1.4 l 0,-4.4 z"
         id="path293"
         inkscape:connector-curvature="0"
         style="fill:#ffffff" /><path
         d="m 1379.1,442.2 c 1.3,0.9 3.7,1.8 5.9,1.8 3.3,0 4.8,-1.6 4.8,-3.7 0,-2.2 -1.3,-3.3 -4.6,-4.6 -4.5,-1.6 -6.6,-4 -6.6,-7 0,-4 3.2,-7.3 8.6,-7.3 2.5,0 4.7,0.7 6.1,1.5 l -1.1,3.3 c -1,-0.6 -2.8,-1.4 -5.1,-1.4 -2.7,0 -4.2,1.5 -4.2,3.4 0,2 1.5,3 4.7,4.2 4.3,1.6 6.5,3.8 6.5,7.5 0,4.4 -3.4,7.4 -9.3,7.4 -2.7,0 -5.2,-0.7 -7,-1.7 l 1.3,-3.4 z"
         id="path295"
         inkscape:connector-curvature="0"
         style="fill:#ffffff" /><path
         d="m 1405.1,415 c 0.1,1.5 -1.1,2.8 -2.9,2.8 -1.6,0 -2.7,-1.2 -2.7,-2.8 0,-1.6 1.2,-2.8 2.8,-2.8 1.7,0 2.8,1.2 2.8,2.8 z m -5,31.8 0,-24.8 4.5,0 0,24.8 -4.5,0 z"
         id="path297"
         inkscape:connector-curvature="0"
         style="fill:#ffffff" /><path
         d="m 1412,410.4 4.5,0 0,36.4 -4.5,0 0,-36.4 z"
         id="path299"
         inkscape:connector-curvature="0"
         style="fill:#ffffff" /><path
         d="m 1425.8,422 5.4,14.7 c 0.6,1.6 1.2,3.6 1.6,5.1 l 0.1,0 c 0.5,-1.5 1,-3.4 1.6,-5.2 l 4.9,-14.6 4.8,0 -6.8,17.7 c -3.2,8.5 -5.4,12.9 -8.5,15.5 -2.2,1.9 -4.4,2.7 -5.5,2.9 l -1.1,-3.8 c 1.1,-0.4 2.6,-1.1 3.9,-2.2 1.2,-1 2.8,-2.7 3.8,-5 0.2,-0.5 0.4,-0.8 0.4,-1.1 0,-0.3 -0.1,-0.6 -0.3,-1.2 l -9.2,-22.9 4.9,0 z"
         id="path301"
         inkscape:connector-curvature="0"
         style="fill:#ffffff" /></g></g><path
     d="M 1546.7,-2 1375,-2 c -3.1,11.5 -4.8,23.6 -4.8,36.1 0,76 61.6,137.6 137.6,137.6 13.5,0 26.5,-2 38.9,-5.6 l 0,-168.1 z"
     id="path303"
     inkscape:connector-curvature="0"
     style="opacity:0.1;fill:#ffffff" /><path
     d="m 67.9,168.4 c -24.7,0 -47.8,6.5 -67.9,17.9 l 0,239.5 c 20,11.4 43.2,17.9 67.9,17.9 76,0 137.6,-61.6 137.6,-137.6 0,-76 -61.6,-137.7 -137.6,-137.7 z"
     id="path305"
     inkscape:connector-curvature="0"
     style="opacity:0.1;fill:#ffffff" /></svg>