<?xml version="1.0" encoding="utf-8"?>
<!-- Generator: Adobe Illustrator 18.0.0, SVG Export Plug-In . SVG Version: 6.00 Build 0)  -->
<!DOCTYPE svg PUBLIC "-//W3C//DTD SVG 1.1//EN" "http://www.w3.org/Graphics/SVG/1.1/DTD/svg11.dtd">
<svg version="1.1" id="Calque_1" xmlns="http://www.w3.org/2000/svg" xmlns:xlink="http://www.w3.org/1999/xlink" x="0px" y="0px"
	 viewBox="0 0 256 256" enable-background="new 0 0 256 256" xml:space="preserve">
<rect x="1515.1" y="-163.6" display="none" fill="#1DA67A" width="211.3" height="76.4"/>
<rect x="1515.1" y="-68" display="none" fill="#004D40" width="211.3" height="76.4"/>
<rect x="1515.1" y="-260.2" display="none" fill="#6C6C6C" width="211.3" height="76.4"/>
<g>
	<g>
		<radialGradient id="SVGID_1_" cx="128" cy="128" r="128" gradientUnits="userSpaceOnUse">
			<stop  offset="0" style="stop-color:#00815C"/>
			<stop  offset="0.7916" style="stop-color:#005845"/>
			<stop  offset="1" style="stop-color:#004D3F"/>
		</radialGradient>
		<rect x="0" y="0" fill="url(#SVGID_1_)" width="256" height="256"/>
		<g>
			<circle opacity="0.1" fill="#FFFFFF" cx="221.2" cy="62.2" r="29.4"/>
			<circle opacity="0.1" fill="#FFFFFF" cx="200.5" cy="43.1" r="17.8"/>
		</g>
		<g>
			<circle opacity="0.1" fill="#FFFFFF" cx="38.2" cy="144.3" r="29.4"/>
			<circle opacity="0.1" fill="#FFFFFF" cx="59" cy="163.4" r="17.8"/>
		</g>
		<path fill="#FFFFFF" d="M215,63.1H41.1c-8.8,0-16,7.2-16,16v24.5c0,8.8,7.2,16,16,16h70.7l4.9,8.5l11.3,19.6l11.3-19.6l4.9-8.5
			H215c8.8,0,16-7.2,16-16V79.1C231,70.3,223.8,63.1,215,63.1z"/>
		<rect x="0" y="200.1" fill="#1DA67A" width="256.1" height="55.9"/>
	</g>
	<g>
		<path fill="#1DA67A" d="M49.1,80.2c0,1.7-1.3,3-3.2,3c-1.9,0-3.2-1.3-3.1-3c0-1.7,1.2-3,3.2-3C47.8,77.2,49,78.5,49.1,80.2z
			 M42.8,105V85.6h6V105H42.8z"/>
		<path fill="#1DA67A" d="M59,83.4h-7.2v-5.1h20.5v5.1h-7.3V105H59V83.4z"/>
		<path fill="#1DA67A" d="M74.9,76.9h6v11H81c0.6-0.8,1.4-1.5,2.4-2c0.9-0.5,2-0.8,3.1-0.8c3.8,0,6.8,2.7,6.8,8.5V105h-6V94.3
			c0-2.5-0.9-4.3-3.1-4.3c-1.6,0-2.6,1-3,2.1c-0.2,0.4-0.2,0.9-0.2,1.3V105h-6V76.9z"/>
		<path fill="#1DA67A" d="M117.2,95.1c0,7.1-5,10.3-10.2,10.3c-5.7,0-10-3.7-10-10s4.1-10.3,10.3-10.3
			C113.3,85.2,117.2,89.3,117.2,95.1z M103.2,95.3c0,3.3,1.4,5.8,4,5.8c2.3,0,3.8-2.3,3.8-5.8c0-2.9-1.1-5.8-3.8-5.8
			C104.3,89.5,103.2,92.4,103.2,95.3z"/>
		<path fill="#1DA67A" d="M139.2,98.8c0,2.5,0.1,4.6,0.2,6.2h-5.2l-0.3-2.7h-0.1c-0.8,1.2-2.6,3.2-6.1,3.2c-3.9,0-6.8-2.5-6.8-8.4
			V85.6h6.1V96c0,2.8,0.9,4.5,3,4.5c1.7,0,2.6-1.1,3-2.1c0.2-0.4,0.2-0.8,0.2-1.3V85.6h6.1V98.8z"/>
		<path fill="#1DA67A" d="M162.5,85.6c-0.1,1.2-0.2,2.9-0.2,5.7v10.8c0,3.7-0.8,6.8-2.9,8.7c-2.1,1.8-5,2.4-7.9,2.4
			c-2.5,0-5.2-0.5-7-1.5l1.2-4.6c1.2,0.7,3.4,1.5,5.6,1.5c2.9,0,5-1.5,5-5.1v-1.3h-0.1c-1.1,1.6-3,2.5-5.2,2.5
			c-4.8,0-8.2-3.9-8.2-9.5c0-6.2,4-10.2,8.8-10.2c2.7,0,4.3,1.1,5.3,2.7h0.1l0.2-2.3H162.5z M156.4,93.5c0-0.4,0-0.8-0.1-1.1
			c-0.4-1.6-1.6-2.7-3.2-2.7c-2.2,0-4,2-4,5.5c0,2.9,1.4,5.1,4,5.1c1.5,0,2.8-1,3.2-2.5c0.2-0.4,0.2-1.1,0.2-1.6V93.5z"/>
		<path fill="#1DA67A" d="M167.2,76.9h6v11h0.1c0.6-0.8,1.4-1.5,2.4-2c0.9-0.5,2-0.8,3.1-0.8c3.8,0,6.8,2.7,6.8,8.5V105h-6V94.3
			c0-2.5-0.9-4.3-3.1-4.3c-1.6,0-2.6,1-3,2.1c-0.2,0.4-0.2,0.9-0.2,1.3V105h-6V76.9z"/>
		<path fill="#1DA67A" d="M196.9,80.1v5.5h4.3v4.4h-4.3v7c0,2.3,0.6,3.4,2.4,3.4c0.8,0,1.3-0.1,1.8-0.2l0,4.6
			c-0.8,0.3-2.2,0.5-3.9,0.5c-1.9,0-3.6-0.7-4.5-1.7c-1.1-1.1-1.7-3-1.7-5.7v-7.9h-2.6v-4.4h2.6v-4.2L196.9,80.1z"/>
		<path fill="#1DA67A" d="M204.7,99.7c1.1,0.7,3.4,1.5,5.2,1.5c1.8,0,2.6-0.6,2.6-1.6s-0.6-1.5-2.9-2.2c-4-1.3-5.5-3.5-5.5-5.8
			c0-3.6,3.1-6.3,7.9-6.3c2.3,0,4.3,0.5,5.5,1.1l-1.1,4.2c-0.9-0.5-2.5-1.1-4.2-1.1c-1.5,0-2.3,0.6-2.3,1.6c0,0.9,0.8,1.4,3.1,2.2
			c3.7,1.3,5.2,3.1,5.3,6c0,3.6-2.9,6.3-8.4,6.3c-2.5,0-4.8-0.6-6.3-1.3L204.7,99.7z"/>
	</g>
	<g>
		<path fill="#F4F4F4" d="M18.8,214.3h-7.3v-2.6h17.7v2.6h-7.3v21.2h-3.1V214.3z"/>
		<path fill="#F4F4F4" d="M44.7,226.8c0,6.3-4.4,9.1-8.5,9.1c-4.6,0-8.2-3.4-8.2-8.8c0-5.7,3.8-9.1,8.5-9.1
			C41.4,218,44.7,221.6,44.7,226.8z M31.2,227c0,3.8,2.2,6.6,5.2,6.6c3,0,5.2-2.8,5.2-6.7c0-2.9-1.5-6.6-5.1-6.6
			C32.7,220.4,31.2,223.8,31.2,227z"/>
		<path fill="#F4F4F4" d="M64.2,226.8c0,6.3-4.4,9.1-8.5,9.1c-4.6,0-8.2-3.4-8.2-8.8c0-5.7,3.8-9.1,8.5-9.1
			C60.9,218,64.2,221.6,64.2,226.8z M50.6,227c0,3.8,2.2,6.6,5.2,6.6c3,0,5.2-2.8,5.2-6.7c0-2.9-1.5-6.6-5.1-6.6
			C52.2,220.4,50.6,223.8,50.6,227z"/>
		<path fill="#F4F4F4" d="M68.1,210.4h3.1v25.1h-3.1V210.4z"/>
		<path fill="#F4F4F4" d="M80.2,213.5v4.9h4.5v2.4h-4.5v9.2c0,2.1,0.6,3.3,2.3,3.3c0.8,0,1.4-0.1,1.8-0.2l0.1,2.3
			c-0.6,0.2-1.6,0.4-2.8,0.4c-1.5,0-2.6-0.5-3.4-1.3c-0.9-0.9-1.2-2.4-1.2-4.5v-9.3h-2.7v-2.4h2.7v-4.1L80.2,213.5z"/>
		<path fill="#F4F4F4" d="M91.7,213.6c0,1.1-0.7,1.9-2,1.9c-1.1,0-1.9-0.8-1.9-1.9c0-1.1,0.8-1.9,1.9-1.9
			C90.9,211.7,91.7,212.5,91.7,213.6z M88.2,235.6v-17.1h3.1v17.1H88.2z"/>
		<path fill="#F4F4F4" d="M96.5,224c0-2.2-0.1-4-0.1-5.6h2.8l0.1,2.9h0.1c1.3-2.1,3.3-3.3,6.1-3.3c4.1,0,7.3,3.5,7.3,8.7
			c0,6.2-3.8,9.2-7.8,9.2c-2.3,0-4.2-1-5.3-2.7h-0.1v9.3h-3.1V224z M99.5,228.6c0,0.5,0.1,0.9,0.1,1.3c0.6,2.2,2.4,3.6,4.7,3.6
			c3.3,0,5.2-2.7,5.2-6.6c0-3.4-1.8-6.4-5.1-6.4c-2.1,0-4.1,1.5-4.7,3.9c-0.1,0.4-0.2,0.8-0.2,1.3V228.6z"/>
		<path fill="#F4F4F4" d="M142.4,234.5c-1.4,0.5-4.1,1.3-7.3,1.3c-3.6,0-6.6-0.9-8.9-3.2c-2.1-2-3.3-5.2-3.3-8.9
			c0-7.1,4.9-12.3,12.9-12.3c2.8,0,4.9,0.6,5.9,1.1l-0.7,2.5c-1.3-0.6-2.9-1-5.3-1c-5.8,0-9.6,3.6-9.6,9.6c0,6.1,3.6,9.6,9.2,9.6
			c2,0,3.4-0.3,4.1-0.6v-7.1h-4.8V223h7.9V234.5z"/>
		<path fill="#F4F4F4" d="M147,210.4h3.1v25.1H147V210.4z"/>
		<path fill="#F4F4F4" d="M170.8,226.8c0,6.3-4.4,9.1-8.5,9.1c-4.6,0-8.2-3.4-8.2-8.8c0-5.7,3.8-9.1,8.5-9.1
			C167.5,218,170.8,221.6,170.8,226.8z M157.2,227c0,3.8,2.2,6.6,5.2,6.6c3,0,5.2-2.8,5.2-6.7c0-2.9-1.5-6.6-5.1-6.6
			C158.8,220.4,157.2,223.8,157.2,227z"/>
		<path fill="#F4F4F4" d="M174.3,232.4c0.9,0.6,2.5,1.2,4.1,1.2c2.3,0,3.3-1.1,3.3-2.5c0-1.5-0.9-2.3-3.2-3.2
			c-3.1-1.1-4.5-2.8-4.5-4.8c0-2.8,2.2-5,5.9-5c1.7,0,3.3,0.5,4.2,1.1l-0.8,2.3c-0.7-0.4-1.9-1-3.5-1c-1.8,0-2.9,1.1-2.9,2.3
			c0,1.4,1,2.1,3.3,2.9c3,1.1,4.5,2.6,4.5,5.2c0,3-2.3,5.1-6.4,5.1c-1.9,0-3.6-0.5-4.8-1.2L174.3,232.4z"/>
		<path fill="#F4F4F4" d="M188.4,232.4c0.9,0.6,2.5,1.2,4.1,1.2c2.3,0,3.3-1.1,3.3-2.5c0-1.5-0.9-2.3-3.2-3.2
			c-3.1-1.1-4.5-2.8-4.5-4.8c0-2.8,2.2-5,5.9-5c1.7,0,3.3,0.5,4.2,1.1l-0.8,2.3c-0.7-0.4-1.9-1-3.5-1c-1.8,0-2.9,1.1-2.9,2.3
			c0,1.4,1,2.1,3.3,2.9c3,1.1,4.5,2.6,4.5,5.2c0,3-2.3,5.1-6.4,5.1c-1.9,0-3.6-0.5-4.8-1.2L188.4,232.4z"/>
		<path fill="#F4F4F4" d="M212.3,235.6l-0.2-2.2h-0.1c-1,1.3-2.8,2.5-5.2,2.5c-3.5,0-5.2-2.4-5.2-4.9c0-4.1,3.7-6.4,10.3-6.4v-0.4
			c0-1.4-0.4-4-3.9-4c-1.6,0-3.3,0.5-4.5,1.3l-0.7-2.1c1.4-0.9,3.5-1.5,5.6-1.5c5.2,0,6.5,3.6,6.5,7v6.4c0,1.5,0.1,2.9,0.3,4.1
			H212.3z M211.8,226.8c-3.4-0.1-7.3,0.5-7.3,3.9c0,2,1.3,3,2.9,3c2.2,0,3.6-1.4,4.1-2.9c0.1-0.3,0.2-0.7,0.2-1V226.8z"/>
		<path fill="#F4F4F4" d="M219.9,223.8c0-2,0-3.8-0.1-5.3h2.7l0.1,3.4h0.1c0.8-2.3,2.7-3.8,4.7-3.8c0.4,0,0.6,0,0.9,0.1v2.9
			c-0.3-0.1-0.6-0.1-1.1-0.1c-2.2,0-3.8,1.7-4.2,4c-0.1,0.4-0.1,0.9-0.1,1.5v9.1h-3.1V223.8z"/>
		<path fill="#F4F4F4" d="M233.5,218.4l3.8,10.1c0.4,1.1,0.8,2.5,1.1,3.5h0.1c0.3-1,0.7-2.3,1.1-3.6l3.4-10.1h3.3l-4.7,12.2
			c-2.2,5.9-3.8,8.9-5.9,10.7c-1.5,1.3-3,1.9-3.8,2l-0.8-2.6c0.8-0.2,1.8-0.7,2.7-1.5c0.8-0.7,1.9-1.9,2.6-3.5
			c0.1-0.3,0.2-0.6,0.2-0.7c0-0.2-0.1-0.4-0.2-0.8l-6.3-15.8H233.5z"/>
	</g>
</g>
<g display="none">
	<rect x="-177.1" y="-118.2" display="inline" fill="#FFFFFF" width="1544" height="500"/>
	<radialGradient id="SVGID_2_" cx="596.1334" cy="132.7592" r="574.8448" gradientUnits="userSpaceOnUse">
		<stop  offset="0" style="stop-color:#007256"/>
		<stop  offset="0.2635" style="stop-color:#006C52"/>
		<stop  offset="0.6954" style="stop-color:#005B48"/>
		<stop  offset="1" style="stop-color:#004D3F"/>
	</radialGradient>
	<rect x="-177.1" y="-118.2" display="inline" fill="url(#SVGID_2_)" width="1546.5" height="502"/>
	<g display="inline">
		<circle opacity="0.1" fill="#FFFFFF" cx="-50" cy="66.6" r="98.1"/>
		<circle opacity="0.1" fill="#FFFFFF" cx="19.2" cy="130.4" r="59.3"/>
	</g>
	<rect x="-175.8" y="244.5" display="inline" fill="#1DA67A" width="1545.5" height="138.4"/>
	<g display="inline">
		<g>
			<path fill="#FFFFFF" d="M133.6,139c0,3-2.3,5.5-5.9,5.5c-3.5,0-5.8-2.5-5.7-5.5c-0.1-3.2,2.2-5.6,5.8-5.6S133.6,135.8,133.6,139z
				 M122.3,184.1v-35.3h11v35.3H122.3z"/>
			<path fill="#FFFFFF" d="M151.8,144.7h-13.1v-9.2h37.4v9.2h-13.3v39.4h-11V144.7z"/>
			<path fill="#FFFFFF" d="M180.8,132.8h11V153h0.1c1.2-1.5,2.6-2.7,4.3-3.6c1.6-0.9,3.7-1.4,5.7-1.4c7,0,12.3,4.8,12.3,15.4v20.6
				h-11v-19.4c0-4.6-1.6-7.8-5.7-7.8c-2.9,0-4.7,1.9-5.5,3.8c-0.3,0.7-0.4,1.7-0.4,2.5v20.9h-11V132.8z"/>
			<path fill="#FFFFFF" d="M257.9,166c0,12.9-9.2,18.8-18.6,18.8c-10.3,0-18.3-6.8-18.3-18.2s7.5-18.7,18.8-18.7
				C250.7,148,257.9,155.4,257.9,166z M232.3,166.4c0,6.1,2.5,10.6,7.2,10.6c4.3,0,7-4.3,7-10.6c0-5.3-2-10.6-7-10.6
				C234.3,155.8,232.3,161.2,232.3,166.4z"/>
			<path fill="#FFFFFF" d="M297.9,172.7c0,4.6,0.1,8.4,0.3,11.3h-9.5l-0.5-5H288c-1.4,2.2-4.7,5.8-11,5.8c-7.1,0-12.4-4.5-12.4-15.4
				v-20.7h11v19c0,5.1,1.7,8.2,5.5,8.2c3,0,4.8-2.1,5.5-3.8c0.3-0.6,0.4-1.5,0.4-2.4v-21h11V172.7z"/>
			<path fill="#FFFFFF" d="M340.4,148.8c-0.1,2.2-0.3,5.2-0.3,10.5v19.7c0,6.8-1.4,12.3-5.3,15.9c-3.9,3.3-9.2,4.3-14.4,4.3
				c-4.6,0-9.5-0.9-12.7-2.7l2.2-8.3c2.2,1.3,6.1,2.7,10.2,2.7c5.2,0,9.2-2.8,9.2-9.3v-2.3h-0.1c-2.1,3-5.5,4.6-9.5,4.6
				c-8.7,0-14.9-7.1-14.9-17.2c0-11.3,7.4-18.5,16-18.5c4.8,0,7.9,2.1,9.7,5h0.1l0.4-4.2H340.4z M329.2,163.1c0-0.7-0.1-1.4-0.2-2
				c-0.8-2.9-2.9-4.8-5.9-4.8c-4,0-7.2,3.6-7.2,10c0,5.3,2.6,9.4,7.2,9.4c2.8,0,5.1-1.9,5.8-4.5c0.3-0.8,0.4-1.9,0.4-2.9V163.1z"/>
			<path fill="#FFFFFF" d="M349,132.8h11V153h0.1c1.2-1.5,2.6-2.7,4.3-3.6c1.6-0.9,3.7-1.4,5.7-1.4c7,0,12.3,4.8,12.3,15.4v20.6h-11
				v-19.4c0-4.6-1.6-7.8-5.7-7.8c-2.9,0-4.7,1.9-5.5,3.8c-0.3,0.7-0.4,1.7-0.4,2.5v20.9h-11V132.8z"/>
			<path fill="#FFFFFF" d="M403.1,138.7v10.1h7.9v8.1h-7.9v12.8c0,4.3,1,6.2,4.3,6.2c1.4,0,2.5-0.1,3.2-0.3l0.1,8.3
				c-1.4,0.6-4,0.9-7.1,0.9c-3.5,0-6.5-1.2-8.2-3c-2-2.1-3-5.5-3-10.5v-14.4h-4.7v-8.1h4.7v-7.6L403.1,138.7z"/>
			<path fill="#FFFFFF" d="M417.2,174.5c2,1.2,6.2,2.7,9.5,2.7c3.3,0,4.7-1.2,4.7-3c0-1.8-1.1-2.7-5.2-4c-7.3-2.5-10.1-6.4-10-10.6
				c0-6.6,5.6-11.5,14.4-11.5c4.1,0,7.8,0.9,10,2l-1.9,7.6c-1.6-0.9-4.6-2-7.6-2c-2.7,0-4.2,1.1-4.2,2.9c0,1.7,1.4,2.5,5.7,4
				c6.7,2.3,9.5,5.7,9.6,10.9c0,6.6-5.2,11.4-15.3,11.4c-4.6,0-8.7-1-11.4-2.5L417.2,174.5z"/>
		</g>
		<g>
			<path fill="#A9A8A8" d="M564.3,140.8h-14.8v-5.3h36v5.3h-14.9v43.3h-6.3V140.8z"/>
			<path fill="#A9A8A8" d="M617.1,166.3c0,12.9-8.9,18.5-17.4,18.5c-9.5,0-16.7-6.9-16.7-18c0-11.7,7.6-18.5,17.3-18.5
				C610.4,148.3,617.1,155.6,617.1,166.3z M589.4,166.7c0,7.6,4.4,13.4,10.6,13.4c6.1,0,10.6-5.7,10.6-13.6c0-5.9-3-13.4-10.5-13.4
				C592.7,153.1,589.4,160,589.4,166.7z"/>
			<path fill="#A9A8A8" d="M656.8,166.3c0,12.9-8.9,18.5-17.4,18.5c-9.5,0-16.7-6.9-16.7-18c0-11.7,7.6-18.5,17.3-18.5
				C650,148.3,656.8,155.6,656.8,166.3z M629.1,166.7c0,7.6,4.4,13.4,10.6,13.4c6.1,0,10.6-5.7,10.6-13.6c0-5.9-3-13.4-10.5-13.4
				C632.3,153.1,629.1,160,629.1,166.7z"/>
			<path fill="#A9A8A8" d="M664.8,132.8h6.3v51.2h-6.3V132.8z"/>
			<path fill="#A9A8A8" d="M689.4,139.1v10h9.1v4.8h-9.1v18.8c0,4.3,1.2,6.8,4.8,6.8c1.7,0,2.9-0.2,3.7-0.4l0.3,4.8
				c-1.2,0.5-3.2,0.9-5.6,0.9c-3,0-5.3-0.9-6.9-2.7c-1.8-1.9-2.5-5-2.5-9.1v-19h-5.4v-4.8h5.4v-8.4L689.4,139.1z"/>
			<path fill="#A9A8A8" d="M712.8,139.3c0.1,2.2-1.5,3.9-4,3.9c-2.2,0-3.8-1.7-3.8-3.9c0-2.2,1.7-4,4-4
				C711.2,135.4,712.8,137.1,712.8,139.3z M705.7,184.1v-34.9h6.3v34.9H705.7z"/>
			<path fill="#A9A8A8" d="M722.6,160.5c0-4.5-0.1-8.1-0.3-11.4h5.7l0.3,6h0.1c2.6-4.3,6.7-6.8,12.4-6.8c8.4,0,14.8,7.1,14.8,17.7
				c0,12.6-7.6,18.8-15.9,18.8c-4.6,0-8.7-2-10.7-5.5h-0.1v19h-6.3V160.5z M728.8,169.8c0,0.9,0.1,1.8,0.3,2.6
				c1.2,4.4,5,7.4,9.5,7.4c6.7,0,10.6-5.5,10.6-13.5c0-7-3.7-13-10.4-13c-4.3,0-8.4,3.1-9.6,7.9c-0.2,0.8-0.4,1.7-0.4,2.6V169.8z"/>
			<path fill="#A9A8A8" d="M816.1,181.9c-2.8,1-8.4,2.7-14.9,2.7c-7.4,0-13.4-1.9-18.2-6.4c-4.2-4-6.8-10.5-6.8-18.1
				c0.1-14.5,10-25.1,26.3-25.1c5.6,0,10,1.2,12.1,2.2l-1.5,5.1c-2.6-1.2-5.8-2.1-10.7-2.1c-11.8,0-19.6,7.4-19.6,19.6
				c0,12.3,7.4,19.6,18.8,19.6c4.1,0,6.9-0.6,8.4-1.3v-14.5h-9.9v-5.1h16V181.9z"/>
			<path fill="#A9A8A8" d="M825.5,132.8h6.3v51.2h-6.3V132.8z"/>
			<path fill="#A9A8A8" d="M874.2,166.3c0,12.9-8.9,18.5-17.4,18.5c-9.5,0-16.7-6.9-16.7-18c0-11.7,7.6-18.5,17.3-18.5
				C867.4,148.3,874.2,155.6,874.2,166.3z M846.5,166.7c0,7.6,4.4,13.4,10.6,13.4c6.1,0,10.6-5.7,10.6-13.6c0-5.9-3-13.4-10.5-13.4
				C849.7,153.1,846.5,160,846.5,166.7z"/>
			<path fill="#A9A8A8" d="M881.3,177.6c1.9,1.2,5.2,2.5,8.4,2.5c4.6,0,6.8-2.3,6.8-5.2c0-3-1.8-4.7-6.5-6.4
				c-6.3-2.2-9.2-5.7-9.2-9.9c0-5.6,4.5-10.2,12-10.2c3.5,0,6.6,1,8.6,2.2l-1.6,4.6c-1.4-0.9-3.9-2-7.1-2c-3.8,0-5.8,2.2-5.8,4.8
				c0,2.9,2.1,4.2,6.6,5.9c6.1,2.3,9.2,5.3,9.2,10.5c0,6.1-4.8,10.5-13.1,10.5c-3.8,0-7.4-0.9-9.8-2.4L881.3,177.6z"/>
			<path fill="#A9A8A8" d="M909.9,177.6c1.9,1.2,5.2,2.5,8.4,2.5c4.6,0,6.8-2.3,6.8-5.2c0-3-1.8-4.7-6.5-6.4
				c-6.3-2.2-9.2-5.7-9.2-9.9c0-5.6,4.5-10.2,12-10.2c3.5,0,6.6,1,8.6,2.2l-1.6,4.6c-1.4-0.9-3.9-2-7.1-2c-3.8,0-5.8,2.2-5.8,4.8
				c0,2.9,2.1,4.2,6.6,5.9c6.1,2.3,9.2,5.3,9.2,10.5c0,6.1-4.8,10.5-13.1,10.5c-3.8,0-7.4-0.9-9.8-2.4L909.9,177.6z"/>
			<path fill="#A9A8A8" d="M958.7,184.1l-0.5-4.4h-0.2c-1.9,2.7-5.7,5.2-10.7,5.2c-7.1,0-10.7-5-10.7-10c0-8.4,7.5-13.1,21-13v-0.7
				c0-2.9-0.8-8.1-7.9-8.1c-3.2,0-6.6,1-9.1,2.6l-1.4-4.2c2.9-1.9,7.1-3.1,11.5-3.1c10.7,0,13.3,7.3,13.3,14.3v13.1
				c0,3,0.1,6,0.6,8.4H958.7z M957.7,166.2c-6.9-0.1-14.8,1.1-14.8,7.9c0,4.1,2.7,6.1,6,6.1c4.5,0,7.4-2.9,8.4-5.8
				c0.2-0.6,0.4-1.4,0.4-2V166.2z"/>
			<path fill="#A9A8A8" d="M974.1,160c0-4.1-0.1-7.6-0.3-10.9h5.6l0.2,6.9h0.3c1.6-4.7,5.4-7.6,9.7-7.6c0.7,0,1.2,0.1,1.8,0.2v6
				c-0.6-0.1-1.3-0.2-2.2-0.2c-4.5,0-7.6,3.4-8.5,8.2c-0.1,0.9-0.3,1.9-0.3,3v18.6h-6.3V160z"/>
			<path fill="#A9A8A8" d="M1001.8,149.1l7.6,20.6c0.8,2.3,1.7,5,2.2,7.1h0.1c0.6-2.1,1.4-4.8,2.2-7.3l6.9-20.5h6.7l-9.5,24.9
				c-4.5,12-7.6,18.1-12,21.9c-3.1,2.7-6.2,3.8-7.8,4.1l-1.6-5.3c1.6-0.5,3.7-1.5,5.6-3.1c1.7-1.4,3.9-3.8,5.3-7.1
				c0.3-0.6,0.5-1.2,0.5-1.5c0-0.4-0.1-0.9-0.4-1.7l-12.9-32.2H1001.8z"/>
		</g>
	</g>
	<path display="inline" fill="#F4F4F4" d="M230.5,61.9l212-0.3l50.5,73.8l52.7-73.8l436.8,0.3c12.5,0,22.8-10.3,22.8-22.8v-50.6
		c0-12.5-10.3-22.8-22.8-22.8H230.5c-12.5,0-22.8,10.3-22.8,22.8v50.6C207.7,51.6,218,61.9,230.5,61.9z"/>
	<g display="inline">
		<circle opacity="0.1" fill="#FFFFFF" cx="1271.6" cy="41" r="98.1"/>
		<circle opacity="0.1" fill="#FFFFFF" cx="1202.4" cy="-22.8" r="59.3"/>
	</g>
	<circle display="inline" opacity="0.2" fill="#FFFFFF" cx="90.1" cy="36.3" r="17.8"/>
	<circle display="inline" opacity="0.2" fill="#FFFFFF" cx="1100.7" cy="47.1" r="23.6"/>
	<g display="inline">
		<path fill="#FFFFFF" d="M-56.3,327.4c-1.6,0.8-4.9,1.6-9.1,1.6c-9.7,0-17.1-6.1-17.1-17.5c0-10.8,7.3-18.1,18-18.1
			c4.3,0,7,0.9,8.2,1.5l-1.1,3.6c-1.7-0.8-4.1-1.4-7-1.4c-8.1,0-13.5,5.2-13.5,14.2c0,8.5,4.9,13.9,13.3,13.9c2.7,0,5.5-0.6,7.3-1.4
			L-56.3,327.4z"/>
		<path fill="#FFFFFF" d="M-51,311.5c0-2.9-0.1-5.4-0.2-7.7h3.9l0.2,4.9h0.2c1.1-3.3,3.8-5.4,6.9-5.4c0.5,0,0.9,0.1,1.3,0.2v4.3
			c-0.5-0.1-0.9-0.2-1.5-0.2c-3.2,0-5.4,2.4-6,5.8c-0.1,0.6-0.2,1.3-0.2,2.1v13.2H-51V311.5z"/>
		<path fill="#FFFFFF" d="M-32.2,317c0.1,6.1,4,8.6,8.5,8.6c3.2,0,5.2-0.6,6.9-1.3l0.8,3.2c-1.6,0.7-4.3,1.5-8.2,1.5
			c-7.6,0-12.2-5-12.2-12.5c0-7.5,4.4-13.4,11.6-13.4c8.1,0,10.2,7.1,10.2,11.7c0,0.9-0.1,1.6-0.2,2.1H-32.2z M-19,313.8
			c0.1-2.9-1.2-7.3-6.3-7.3c-4.6,0-6.6,4.2-6.9,7.3H-19z"/>
		<path fill="#FFFFFF" d="M4.7,328.6l-0.4-3.1H4.2c-1.4,1.9-4,3.7-7.6,3.7c-5,0-7.6-3.5-7.6-7.1c0-6,5.3-9.3,14.9-9.2v-0.5
			c0-2-0.6-5.7-5.6-5.7c-2.3,0-4.7,0.7-6.5,1.8l-1-3c2-1.3,5-2.2,8.1-2.2c7.6,0,9.4,5.2,9.4,10.1v9.3c0,2.2,0.1,4.3,0.4,5.9H4.7z
			 M4,315.9c-4.9-0.1-10.5,0.8-10.5,5.6c0,2.9,1.9,4.3,4.3,4.3c3.2,0,5.3-2,6-4.1c0.2-0.5,0.3-1,0.3-1.4V315.9z"/>
		<path fill="#FFFFFF" d="M20.9,296.7v7.1h6.5v3.4h-6.5v13.4c0,3.1,0.9,4.8,3.4,4.8c1.2,0,2-0.2,2.6-0.3l0.2,3.4
			c-0.9,0.4-2.3,0.6-4,0.6c-2.1,0-3.8-0.7-4.9-1.9c-1.3-1.3-1.7-3.5-1.7-6.5v-13.5h-3.8v-3.4h3.8v-5.9L20.9,296.7z"/>
		<path fill="#FFFFFF" d="M34.6,317c0.1,6.1,4,8.6,8.5,8.6c3.2,0,5.2-0.6,6.9-1.3l0.8,3.2c-1.6,0.7-4.3,1.5-8.2,1.5
			c-7.6,0-12.2-5-12.2-12.5c0-7.5,4.4-13.4,11.6-13.4c8.1,0,10.2,7.1,10.2,11.7c0,0.9-0.1,1.6-0.2,2.1H34.6z M47.8,313.8
			c0.1-2.9-1.2-7.3-6.3-7.3c-4.6,0-6.6,4.2-6.9,7.3H47.8z"/>
		<path fill="#FFFFFF" d="M66.9,328.6c0.1-1.7,0.2-4.2,0.2-6.4v-30h4.5v15.6h0.1c1.6-2.8,4.5-4.6,8.5-4.6c6.1,0,10.5,5.1,10.5,12.7
			c0,8.9-5.6,13.3-11.1,13.3c-3.6,0-6.5-1.4-8.3-4.7H71l-0.2,4.1H66.9z M71.6,318.6c0,0.6,0.1,1.1,0.2,1.6c0.9,3.1,3.5,5.3,6.8,5.3
			c4.7,0,7.5-3.8,7.5-9.5c0-5-2.6-9.2-7.4-9.2c-3.1,0-5.9,2.1-6.9,5.5c-0.1,0.5-0.3,1.1-0.3,1.8V318.6z"/>
		<path fill="#FFFFFF" d="M98.8,317c0.1,6.1,4,8.6,8.5,8.6c3.2,0,5.2-0.6,6.9-1.3l0.8,3.2c-1.6,0.7-4.3,1.5-8.2,1.5
			c-7.6,0-12.2-5-12.2-12.5c0-7.5,4.4-13.4,11.6-13.4c8.1,0,10.2,7.1,10.2,11.7c0,0.9-0.1,1.6-0.2,2.1H98.8z M112,313.8
			c0.1-2.9-1.2-7.3-6.3-7.3c-4.6,0-6.6,4.2-6.9,7.3H112z"/>
		<path fill="#FFFFFF" d="M135.6,328.6l-0.4-3.1h-0.2c-1.4,1.9-4,3.7-7.6,3.7c-5,0-7.6-3.5-7.6-7.1c0-6,5.3-9.3,14.9-9.2v-0.5
			c0-2-0.6-5.7-5.6-5.7c-2.3,0-4.7,0.7-6.5,1.8l-1-3c2-1.3,5-2.2,8.1-2.2c7.6,0,9.4,5.2,9.4,10.1v9.3c0,2.2,0.1,4.3,0.4,5.9H135.6z
			 M135,315.9c-4.9-0.1-10.5,0.8-10.5,5.6c0,2.9,1.9,4.3,4.3,4.3c3.2,0,5.3-2,6-4.1c0.2-0.5,0.3-1,0.3-1.4V315.9z"/>
		<path fill="#FFFFFF" d="M167.4,321.8c0,2.6,0.1,4.8,0.2,6.8h-4l-0.3-4h-0.1c-1.2,2-3.8,4.6-8.2,4.6c-3.9,0-8.6-2.2-8.6-10.9v-14.5
			h4.5v13.7c0,4.7,1.4,7.9,5.5,7.9c3,0,5.1-2.1,5.9-4.1c0.3-0.7,0.4-1.5,0.4-2.3v-15.2h4.5V321.8z"/>
		<path fill="#FFFFFF" d="M180.3,296.7v7.1h6.5v3.4h-6.5v13.4c0,3.1,0.9,4.8,3.4,4.8c1.2,0,2-0.2,2.6-0.3l0.2,3.4
			c-0.9,0.4-2.3,0.6-4,0.6c-2.1,0-3.8-0.7-4.9-1.9c-1.3-1.3-1.7-3.5-1.7-6.5v-13.5H172v-3.4h3.8v-5.9L180.3,296.7z"/>
		<path fill="#FFFFFF" d="M196.8,296.8c0.1,1.5-1.1,2.8-2.9,2.8c-1.6,0-2.7-1.2-2.7-2.8c0-1.6,1.2-2.8,2.8-2.8
			C195.7,294,196.8,295.2,196.8,296.8z M191.8,328.6v-24.8h4.5v24.8H191.8z"/>
		<path fill="#FFFFFF" d="M204.2,328.6v-21.4h-3.5v-3.4h3.5v-1.2c0-3.5,0.8-6.7,2.9-8.7c1.7-1.6,3.9-2.3,6-2.3c1.6,0,3,0.4,3.8,0.7
			l-0.6,3.5c-0.7-0.3-1.6-0.6-2.9-0.6c-3.8,0-4.8,3.4-4.8,7.2v1.3h6v3.4h-6v21.4H204.2z"/>
		<path fill="#FFFFFF" d="M239.5,321.8c0,2.6,0.1,4.8,0.2,6.8h-4l-0.3-4h-0.1c-1.2,2-3.8,4.6-8.2,4.6c-3.9,0-8.6-2.2-8.6-10.9v-14.5
			h4.5v13.7c0,4.7,1.4,7.9,5.5,7.9c3,0,5.1-2.1,5.9-4.1c0.3-0.7,0.4-1.5,0.4-2.3v-15.2h4.5V321.8z"/>
		<path fill="#FFFFFF" d="M247,292.2h4.5v36.4H247V292.2z"/>
		<path fill="#FFFFFF" d="M273.9,296.7v7.1h6.5v3.4h-6.5v13.4c0,3.1,0.9,4.8,3.4,4.8c1.2,0,2-0.2,2.6-0.3l0.2,3.4
			c-0.9,0.4-2.3,0.6-4,0.6c-2.1,0-3.8-0.7-4.9-1.9c-1.3-1.3-1.7-3.5-1.7-6.5v-13.5h-3.8v-3.4h3.8v-5.9L273.9,296.7z"/>
		<path fill="#FFFFFF" d="M307.5,316c0,9.2-6.4,13.2-12.3,13.2c-6.7,0-11.9-4.9-11.9-12.8c0-8.3,5.4-13.2,12.3-13.2
			C302.7,303.2,307.5,308.4,307.5,316z M287.8,316.2c0,5.4,3.1,9.5,7.5,9.5c4.3,0,7.5-4,7.5-9.6c0-4.2-2.1-9.5-7.4-9.5
			C290.1,306.6,287.8,311.5,287.8,316.2z"/>
		<path fill="#FFFFFF" d="M335.6,316c0,9.2-6.4,13.2-12.3,13.2c-6.7,0-11.9-4.9-11.9-12.8c0-8.3,5.4-13.2,12.3-13.2
			C330.8,303.2,335.6,308.4,335.6,316z M316,316.2c0,5.4,3.1,9.5,7.5,9.5c4.3,0,7.5-4,7.5-9.6c0-4.2-2.1-9.5-7.4-9.5
			C318.3,306.6,316,311.5,316,316.2z"/>
		<path fill="#FFFFFF" d="M341.3,292.2h4.5v36.4h-4.5V292.2z"/>
		<path fill="#FFFFFF" d="M358.9,296.7v7.1h6.5v3.4h-6.5v13.4c0,3.1,0.9,4.8,3.4,4.8c1.2,0,2-0.2,2.6-0.3l0.2,3.4
			c-0.9,0.4-2.3,0.6-4,0.6c-2.1,0-3.8-0.7-4.9-1.9c-1.3-1.3-1.7-3.5-1.7-6.5v-13.5h-3.8v-3.4h3.8v-5.9L358.9,296.7z"/>
		<path fill="#FFFFFF" d="M375.4,296.8c0.1,1.5-1.1,2.8-2.9,2.8c-1.6,0-2.7-1.2-2.7-2.8c0-1.6,1.2-2.8,2.8-2.8
			C374.3,294,375.4,295.2,375.4,296.8z M370.4,328.6v-24.8h4.5v24.8H370.4z"/>
		<path fill="#FFFFFF" d="M382.4,311.9c0-3.2-0.1-5.7-0.2-8.1h4l0.2,4.3h0.1c1.8-3,4.8-4.8,8.8-4.8c6,0,10.5,5.1,10.5,12.6
			c0,8.9-5.4,13.3-11.3,13.3c-3.3,0-6.1-1.4-7.6-3.9h-0.1v13.5h-4.5V311.9z M386.8,318.5c0,0.7,0.1,1.3,0.2,1.8
			c0.8,3.1,3.5,5.3,6.8,5.3c4.8,0,7.5-3.9,7.5-9.6c0-5-2.6-9.2-7.4-9.2c-3.1,0-5.9,2.2-6.8,5.6c-0.2,0.6-0.3,1.2-0.3,1.8V318.5z"/>
		<path fill="#FFFFFF" d="M410.9,324c1.3,0.9,3.7,1.8,5.9,1.8c3.3,0,4.8-1.6,4.8-3.7c0-2.2-1.3-3.3-4.6-4.6c-4.5-1.6-6.6-4-6.6-7
			c0-4,3.2-7.3,8.6-7.3c2.5,0,4.7,0.7,6.1,1.5L424,308c-1-0.6-2.8-1.4-5.1-1.4c-2.7,0-4.2,1.5-4.2,3.4c0,2,1.5,3,4.7,4.2
			c4.3,1.6,6.5,3.8,6.5,7.5c0,4.4-3.4,7.4-9.3,7.4c-2.7,0-5.2-0.7-7-1.7L410.9,324z"/>
		<path fill="#FFFFFF" d="M441.6,328.6v-21.4h-3.5v-3.4h3.5v-1.2c0-3.5,0.8-6.7,2.9-8.7c1.7-1.6,3.9-2.3,6-2.3c1.6,0,3,0.4,3.8,0.7
			l-0.6,3.5c-0.7-0.3-1.6-0.6-2.9-0.6c-3.8,0-4.8,3.4-4.8,7.2v1.3h6v3.4h-6v21.4H441.6z"/>
		<path fill="#FFFFFF" d="M477.9,316c0,9.2-6.4,13.2-12.3,13.2c-6.7,0-11.9-4.9-11.9-12.8c0-8.3,5.4-13.2,12.3-13.2
			C473.1,303.2,477.9,308.4,477.9,316z M458.2,316.2c0,5.4,3.1,9.5,7.5,9.5c4.3,0,7.5-4,7.5-9.6c0-4.2-2.1-9.5-7.4-9.5
			S458.2,311.5,458.2,316.2z"/>
		<path fill="#FFFFFF" d="M483.6,311.5c0-2.9-0.1-5.4-0.2-7.7h3.9l0.2,4.9h0.2c1.1-3.3,3.8-5.4,6.9-5.4c0.5,0,0.9,0.1,1.3,0.2v4.3
			c-0.5-0.1-0.9-0.2-1.5-0.2c-3.2,0-5.4,2.4-6,5.8c-0.1,0.6-0.2,1.3-0.2,2.1v13.2h-4.5V311.5z"/>
		<path fill="#FFFFFF" d="M531.1,292.2v30c0,2.2,0.1,4.7,0.2,6.4h-4l-0.2-4.3H527c-1.4,2.8-4.4,4.9-8.5,4.9c-6,0-10.6-5.1-10.6-12.6
			c-0.1-8.2,5.1-13.3,11.1-13.3c3.8,0,6.4,1.8,7.5,3.8h0.1v-14.8H531.1z M526.6,313.9c0-0.6-0.1-1.3-0.2-1.9
			c-0.7-2.9-3.1-5.2-6.5-5.2c-4.7,0-7.4,4.1-7.4,9.6c0,5,2.5,9.2,7.3,9.2c3,0,5.8-2,6.6-5.4c0.2-0.6,0.2-1.2,0.2-1.9V313.9z"/>
		<path fill="#FFFFFF" d="M541.1,317c0.1,6.1,4,8.6,8.5,8.6c3.2,0,5.2-0.6,6.9-1.3l0.8,3.2c-1.6,0.7-4.3,1.5-8.2,1.5
			c-7.6,0-12.2-5-12.2-12.5c0-7.5,4.4-13.4,11.6-13.4c8.1,0,10.2,7.1,10.2,11.7c0,0.9-0.1,1.6-0.2,2.1H541.1z M554.3,313.8
			c0.1-2.9-1.2-7.3-6.3-7.3c-4.6,0-6.6,4.2-6.9,7.3H554.3z"/>
		<path fill="#FFFFFF" d="M563.6,324c1.3,0.9,3.7,1.8,5.9,1.8c3.3,0,4.8-1.6,4.8-3.7c0-2.2-1.3-3.3-4.6-4.6c-4.5-1.6-6.6-4-6.6-7
			c0-4,3.2-7.3,8.6-7.3c2.5,0,4.7,0.7,6.1,1.5l-1.1,3.3c-1-0.6-2.8-1.4-5.1-1.4c-2.7,0-4.2,1.5-4.2,3.4c0,2,1.5,3,4.7,4.2
			c4.3,1.6,6.5,3.8,6.5,7.5c0,4.4-3.4,7.4-9.3,7.4c-2.7,0-5.2-0.7-7-1.7L563.6,324z"/>
		<path fill="#FFFFFF" d="M602.2,327.7c-1.2,0.6-3.8,1.4-7.1,1.4c-7.5,0-12.3-5.1-12.3-12.7c0-7.6,5.2-13.2,13.3-13.2
			c2.7,0,5,0.7,6.3,1.3l-1,3.5c-1.1-0.6-2.8-1.2-5.2-1.2c-5.7,0-8.8,4.2-8.8,9.4c0,5.7,3.7,9.3,8.6,9.3c2.6,0,4.3-0.7,5.5-1.2
			L602.2,327.7z"/>
		<path fill="#FFFFFF" d="M607.5,311.5c0-2.9-0.1-5.4-0.2-7.7h3.9l0.2,4.9h0.2c1.1-3.3,3.8-5.4,6.9-5.4c0.5,0,0.9,0.1,1.3,0.2v4.3
			c-0.5-0.1-0.9-0.2-1.5-0.2c-3.2,0-5.4,2.4-6,5.8c-0.1,0.6-0.2,1.3-0.2,2.1v13.2h-4.5V311.5z"/>
		<path fill="#FFFFFF" d="M629.5,296.8c0.1,1.5-1.1,2.8-2.9,2.8c-1.6,0-2.7-1.2-2.7-2.8c0-1.6,1.2-2.8,2.8-2.8
			C628.4,294,629.5,295.2,629.5,296.8z M624.5,328.6v-24.8h4.5v24.8H624.5z"/>
		<path fill="#FFFFFF" d="M636.4,311.9c0-3.2-0.1-5.7-0.2-8.1h4l0.2,4.3h0.1c1.8-3,4.8-4.8,8.8-4.8c6,0,10.5,5.1,10.5,12.6
			c0,8.9-5.4,13.3-11.3,13.3c-3.3,0-6.1-1.4-7.6-3.9h-0.1v13.5h-4.5V311.9z M640.9,318.5c0,0.7,0.1,1.3,0.2,1.8
			c0.8,3.1,3.5,5.3,6.8,5.3c4.8,0,7.5-3.9,7.5-9.6c0-5-2.6-9.2-7.4-9.2c-3.1,0-5.9,2.2-6.8,5.6c-0.2,0.6-0.3,1.2-0.3,1.8V318.5z"/>
		<path fill="#FFFFFF" d="M671,296.7v7.1h6.5v3.4H671v13.4c0,3.1,0.9,4.8,3.4,4.8c1.2,0,2-0.2,2.6-0.3l0.2,3.4
			c-0.9,0.4-2.3,0.6-4,0.6c-2.1,0-3.8-0.7-4.9-1.9c-1.3-1.3-1.7-3.5-1.7-6.5v-13.5h-3.8v-3.4h3.8v-5.9L671,296.7z"/>
		<path fill="#FFFFFF" d="M687.6,296.8c0.1,1.5-1.1,2.8-2.9,2.8c-1.6,0-2.7-1.2-2.7-2.8c0-1.6,1.2-2.8,2.8-2.8
			C686.5,294,687.6,295.2,687.6,296.8z M682.6,328.6v-24.8h4.5v24.8H682.6z"/>
		<path fill="#FFFFFF" d="M717,316c0,9.2-6.4,13.2-12.3,13.2c-6.7,0-11.9-4.9-11.9-12.8c0-8.3,5.4-13.2,12.3-13.2
			C712.2,303.2,717,308.4,717,316z M697.3,316.2c0,5.4,3.1,9.5,7.5,9.5c4.3,0,7.5-4,7.5-9.6c0-4.2-2.1-9.5-7.4-9.5
			S697.3,311.5,697.3,316.2z"/>
		<path fill="#FFFFFF" d="M722.7,310.5c0-2.6-0.1-4.7-0.2-6.7h4l0.3,4.1h0.1c1.2-2.4,4.1-4.7,8.2-4.7c3.4,0,8.8,2,8.8,10.6v14.8
			h-4.5v-14.3c0-4-1.5-7.3-5.7-7.3c-3,0-5.3,2.1-6,4.6c-0.2,0.6-0.3,1.3-0.3,2.1v14.9h-4.5V310.5z"/>
		<path fill="#FFFFFF" d="M750.5,324c1.3,0.9,3.7,1.8,5.9,1.8c3.3,0,4.8-1.6,4.8-3.7c0-2.2-1.3-3.3-4.6-4.6c-4.5-1.6-6.6-4-6.6-7
			c0-4,3.2-7.3,8.6-7.3c2.5,0,4.7,0.7,6.1,1.5l-1.1,3.3c-1-0.6-2.8-1.4-5.1-1.4c-2.7,0-4.2,1.5-4.2,3.4c0,2,1.5,3,4.7,4.2
			c4.3,1.6,6.5,3.8,6.5,7.5c0,4.4-3.4,7.4-9.3,7.4c-2.7,0-5.2-0.7-7-1.7L750.5,324z"/>
		<path fill="#FFFFFF" d="M803.2,316c0,9.2-6.4,13.2-12.3,13.2c-6.7,0-11.9-4.9-11.9-12.8c0-8.3,5.4-13.2,12.3-13.2
			C798.4,303.2,803.2,308.4,803.2,316z M783.5,316.2c0,5.4,3.1,9.5,7.5,9.5c4.3,0,7.5-4,7.5-9.6c0-4.2-2.1-9.5-7.4-9.5
			C785.8,306.6,783.5,311.5,783.5,316.2z"/>
		<path fill="#FFFFFF" d="M808.9,311.5c0-2.9-0.1-5.4-0.2-7.7h3.9l0.2,4.9h0.2c1.1-3.3,3.8-5.4,6.9-5.4c0.5,0,0.9,0.1,1.3,0.2v4.3
			c-0.5-0.1-0.9-0.2-1.5-0.2c-3.2,0-5.4,2.4-6,5.8c-0.1,0.6-0.2,1.3-0.2,2.1v13.2h-4.5V311.5z"/>
		<path fill="#FFFFFF" d="M856.4,303.8c-0.1,1.8-0.2,3.8-0.2,6.8V325c0,5.7-1.1,9.2-3.5,11.3c-2.4,2.3-5.9,3-9,3c-3,0-6.3-0.7-8.2-2
			l1.1-3.4c1.6,1,4.2,1.9,7.3,1.9c4.6,0,8-2.4,8-8.7v-2.8h-0.1c-1.4,2.3-4,4.2-7.9,4.2c-6.1,0-10.6-5.2-10.6-12.1
			c0-8.4,5.5-13.2,11.2-13.2c4.3,0,6.7,2.3,7.7,4.3h0.1l0.2-3.7H856.4z M851.7,313.6c0-0.8-0.1-1.4-0.3-2c-0.8-2.6-3-4.8-6.3-4.8
			c-4.3,0-7.4,3.6-7.4,9.4c0,4.9,2.5,8.9,7.3,8.9c2.8,0,5.3-1.7,6.3-4.6c0.3-0.8,0.4-1.6,0.4-2.4V313.6z"/>
		<path fill="#FFFFFF" d="M863.6,292.2h4.5v36.4h-4.5V292.2z"/>
		<path fill="#FFFFFF" d="M898.2,316c0,9.2-6.4,13.2-12.3,13.2c-6.7,0-11.9-4.9-11.9-12.8c0-8.3,5.4-13.2,12.3-13.2
			C893.3,303.2,898.2,308.4,898.2,316z M878.5,316.2c0,5.4,3.1,9.5,7.5,9.5c4.3,0,7.5-4,7.5-9.6c0-4.2-2.1-9.5-7.4-9.5
			S878.5,311.5,878.5,316.2z"/>
		<path fill="#FFFFFF" d="M903.2,324c1.3,0.9,3.7,1.8,5.9,1.8c3.3,0,4.8-1.6,4.8-3.7c0-2.2-1.3-3.3-4.6-4.6c-4.5-1.6-6.6-4-6.6-7
			c0-4,3.2-7.3,8.6-7.3c2.5,0,4.7,0.7,6.1,1.5l-1.1,3.3c-1-0.6-2.8-1.4-5.1-1.4c-2.7,0-4.2,1.5-4.2,3.4c0,2,1.5,3,4.7,4.2
			c4.3,1.6,6.5,3.8,6.5,7.5c0,4.4-3.4,7.4-9.3,7.4c-2.7,0-5.2-0.7-7-1.7L903.2,324z"/>
		<path fill="#FFFFFF" d="M923.5,324c1.3,0.9,3.7,1.8,5.9,1.8c3.3,0,4.8-1.6,4.8-3.7c0-2.2-1.3-3.3-4.6-4.6c-4.5-1.6-6.6-4-6.6-7
			c0-4,3.2-7.3,8.6-7.3c2.5,0,4.7,0.7,6.1,1.5l-1.1,3.3c-1-0.6-2.8-1.4-5.1-1.4c-2.7,0-4.2,1.5-4.2,3.4c0,2,1.5,3,4.7,4.2
			c4.3,1.6,6.5,3.8,6.5,7.5c0,4.4-3.4,7.4-9.3,7.4c-2.7,0-5.2-0.7-7-1.7L923.5,324z"/>
		<path fill="#FFFFFF" d="M958.2,328.6l-0.4-3.1h-0.2c-1.4,1.9-4,3.7-7.6,3.7c-5,0-7.6-3.5-7.6-7.1c0-6,5.3-9.3,14.9-9.2v-0.5
			c0-2-0.6-5.7-5.6-5.7c-2.3,0-4.7,0.7-6.5,1.8l-1-3c2-1.3,5-2.2,8.1-2.2c7.6,0,9.4,5.2,9.4,10.1v9.3c0,2.2,0.1,4.3,0.4,5.9H958.2z
			 M957.5,315.9c-4.9-0.1-10.5,0.8-10.5,5.6c0,2.9,1.9,4.3,4.3,4.3c3.2,0,5.3-2,6-4.1c0.2-0.5,0.3-1,0.3-1.4V315.9z"/>
		<path fill="#FFFFFF" d="M969.1,311.5c0-2.9-0.1-5.4-0.2-7.7h3.9l0.2,4.9h0.2c1.1-3.3,3.8-5.4,6.9-5.4c0.5,0,0.9,0.1,1.3,0.2v4.3
			c-0.5-0.1-0.9-0.2-1.5-0.2c-3.2,0-5.4,2.4-6,5.8c-0.1,0.6-0.2,1.3-0.2,2.1v13.2h-4.5V311.5z"/>
		<path fill="#FFFFFF" d="M988.8,303.8l5.4,14.7c0.6,1.6,1.2,3.6,1.6,5.1h0.1c0.5-1.5,1-3.4,1.6-5.2l4.9-14.6h4.8l-6.8,17.7
			c-3.2,8.5-5.4,12.9-8.5,15.5c-2.2,1.9-4.4,2.7-5.5,2.9l-1.1-3.8c1.1-0.4,2.6-1.1,3.9-2.2c1.2-1,2.8-2.7,3.8-5
			c0.2-0.5,0.4-0.8,0.4-1.1c0-0.3-0.1-0.6-0.3-1.2l-9.2-22.9H988.8z"/>
		<path fill="#FFFFFF" d="M1026.1,296.7v7.1h6.5v3.4h-6.5v13.4c0,3.1,0.9,4.8,3.4,4.8c1.2,0,2-0.2,2.6-0.3l0.2,3.4
			c-0.9,0.4-2.3,0.6-4,0.6c-2.1,0-3.8-0.7-4.9-1.9c-1.3-1.3-1.7-3.5-1.7-6.5v-13.5h-3.8v-3.4h3.8v-5.9L1026.1,296.7z"/>
		<path fill="#FFFFFF" d="M1039.8,317c0.1,6.1,4,8.6,8.5,8.6c3.2,0,5.2-0.6,6.9-1.3l0.8,3.2c-1.6,0.7-4.3,1.5-8.2,1.5
			c-7.6,0-12.2-5-12.2-12.5c0-7.5,4.4-13.4,11.6-13.4c8.1,0,10.2,7.1,10.2,11.7c0,0.9-0.1,1.6-0.2,2.1H1039.8z M1053,313.8
			c0.1-2.9-1.2-7.3-6.3-7.3c-4.6,0-6.6,4.2-6.9,7.3H1053z"/>
		<path fill="#FFFFFF" d="M1063,311.5c0-2.9-0.1-5.4-0.2-7.7h3.9l0.2,4.9h0.2c1.1-3.3,3.8-5.4,6.9-5.4c0.5,0,0.9,0.1,1.3,0.2v4.3
			c-0.5-0.1-0.9-0.2-1.5-0.2c-3.2,0-5.4,2.4-6,5.8c-0.1,0.6-0.2,1.3-0.2,2.1v13.2h-4.5V311.5z"/>
		<path fill="#FFFFFF" d="M1079.9,310.5c0-2.6-0.1-4.7-0.2-6.7h3.9l0.2,4h0.2c1.4-2.4,3.7-4.6,7.8-4.6c3.4,0,5.9,2,7,5h0.1
			c0.8-1.4,1.7-2.5,2.8-3.2c1.5-1.1,3.1-1.7,5.5-1.7c3.3,0,8.1,2.2,8.1,10.8v14.6h-4.4v-14c0-4.8-1.7-7.6-5.4-7.6
			c-2.6,0-4.6,1.9-5.3,4.1c-0.2,0.6-0.4,1.4-0.4,2.3v15.3h-4.4v-14.9c0-3.9-1.7-6.8-5.2-6.8c-2.8,0-4.9,2.3-5.6,4.5
			c-0.3,0.7-0.4,1.4-0.4,2.2v15h-4.4V310.5z"/>
		<path fill="#FFFFFF" d="M1122,324c1.3,0.9,3.7,1.8,5.9,1.8c3.3,0,4.8-1.6,4.8-3.7c0-2.2-1.3-3.3-4.6-4.6c-4.5-1.6-6.6-4-6.6-7
			c0-4,3.2-7.3,8.6-7.3c2.5,0,4.7,0.7,6.1,1.5l-1.1,3.3c-1-0.6-2.8-1.4-5.1-1.4c-2.7,0-4.2,1.5-4.2,3.4c0,2,1.5,3,4.7,4.2
			c4.3,1.6,6.5,3.8,6.5,7.5c0,4.4-3.4,7.4-9.3,7.4c-2.7,0-5.2-0.7-7-1.7L1122,324z"/>
		<path fill="#FFFFFF" d="M1154.8,317c0.1,6.1,4,8.6,8.5,8.6c3.2,0,5.2-0.6,6.9-1.3l0.8,3.2c-1.6,0.7-4.3,1.5-8.2,1.5
			c-7.6,0-12.2-5-12.2-12.5c0-7.5,4.4-13.4,11.6-13.4c8.1,0,10.2,7.1,10.2,11.7c0,0.9-0.1,1.6-0.2,2.1H1154.8z M1168,313.8
			c0.1-2.9-1.2-7.3-6.3-7.3c-4.6,0-6.6,4.2-6.9,7.3H1168z"/>
		<path fill="#FFFFFF" d="M1191.7,328.6l-0.4-3.1h-0.2c-1.4,1.9-4,3.7-7.6,3.7c-5,0-7.6-3.5-7.6-7.1c0-6,5.3-9.3,14.9-9.2v-0.5
			c0-2-0.6-5.7-5.6-5.7c-2.3,0-4.7,0.7-6.5,1.8l-1-3c2-1.3,5-2.2,8.1-2.2c7.6,0,9.4,5.2,9.4,10.1v9.3c0,2.2,0.1,4.3,0.4,5.9H1191.7z
			 M1191,315.9c-4.9-0.1-10.5,0.8-10.5,5.6c0,2.9,1.9,4.3,4.3,4.3c3.2,0,5.3-2,6-4.1c0.2-0.5,0.3-1,0.3-1.4V315.9z"/>
		<path fill="#FFFFFF" d="M1202,324c1.3,0.9,3.7,1.8,5.9,1.8c3.3,0,4.8-1.6,4.8-3.7c0-2.2-1.3-3.3-4.6-4.6c-4.5-1.6-6.6-4-6.6-7
			c0-4,3.2-7.3,8.6-7.3c2.5,0,4.7,0.7,6.1,1.5l-1.1,3.3c-1-0.6-2.8-1.4-5.1-1.4c-2.7,0-4.2,1.5-4.2,3.4c0,2,1.5,3,4.7,4.2
			c4.3,1.6,6.5,3.8,6.5,7.5c0,4.4-3.4,7.4-9.3,7.4c-2.7,0-5.2-0.7-7-1.7L1202,324z"/>
		<path fill="#FFFFFF" d="M1228,296.8c0.1,1.5-1.1,2.8-2.9,2.8c-1.6,0-2.7-1.2-2.7-2.8c0-1.6,1.2-2.8,2.8-2.8
			C1226.9,294,1228,295.2,1228,296.8z M1222.9,328.6v-24.8h4.5v24.8H1222.9z"/>
		<path fill="#FFFFFF" d="M1234.9,292.2h4.5v36.4h-4.5V292.2z"/>
		<path fill="#FFFFFF" d="M1248.7,303.8l5.4,14.7c0.6,1.6,1.2,3.6,1.6,5.1h0.1c0.5-1.5,1-3.4,1.6-5.2l4.9-14.6h4.8l-6.8,17.7
			c-3.2,8.5-5.4,12.9-8.5,15.5c-2.2,1.9-4.4,2.7-5.5,2.9l-1.1-3.8c1.1-0.4,2.6-1.1,3.9-2.2c1.2-1,2.8-2.7,3.8-5
			c0.2-0.5,0.4-0.8,0.4-1.1c0-0.3-0.1-0.6-0.3-1.2l-9.2-22.9H1248.7z"/>
	</g>
	<path display="inline" opacity="0.1" fill="#FFFFFF" d="M1369.6-118.2H1198c-3.1,11.5-4.8,23.6-4.8,36.1
		c0,76,61.6,137.6,137.6,137.6c13.5,0,26.5-2,38.9-5.6V-118.2z"/>
	<path display="inline" opacity="0.1" fill="#FFFFFF" d="M-109.3,52.2c-24.7,0-47.8,6.5-67.9,17.9v239.5
		c20,11.4,43.2,17.9,67.9,17.9c76,0,137.6-61.6,137.6-137.6S-33.3,52.2-109.3,52.2z"/>
</g>
<path opacity="0.1" fill="#FFFFFF" d="M20.5,139.9c-7.5,0-14.5,2-20.5,5.5v71.5c6,3.5,13,5.5,20.5,5.5c22.8,0,41.2-18.4,41.2-41.2
	C61.7,158.4,43.3,139.9,20.5,139.9z"/>
<path opacity="0.1" fill="#FFFFFF" d="M256.1,0h-49.6c-5.5,7-8.7,15.8-8.7,25.4c0,22.8,18.4,41.2,41.2,41.2c6.1,0,11.9-1.3,17.1-3.7
	V0z"/>
</svg>
